
  <svg width="385.5" height="160.5" viewBox="0 0 2056 856" fill="none" xmlns="http://www.w3.org/2000/svg" xmlns:xlink="http://www.w3.org/1999/xlink" version="1.1">
    
        <g transform="translate(0, 0)">
          <svg width="256" height="256" viewBox="0 0 256 256" fill="none" xmlns="http://www.w3.org/2000/svg">
<g clip-path="url(#clip0_33_732)">
<path d="M196 0H60C26.8629 0 0 26.8629 0 60V196C0 229.137 26.8629 256 60 256H196C229.137 256 256 229.137 256 196V60C256 26.8629 229.137 0 196 0Z" fill="#F4F2ED"/>
<path fill-rule="evenodd" clip-rule="evenodd" d="M191.072 195.009C187.802 200.396 184.532 204.435 180.588 208.185C176.164 212.129 174.914 215.591 164.718 216.939C157.505 218.286 151.253 215.591 148.848 214.534C141.634 211.167 137.882 210.11 133.555 210.11C129.323 210.11 125.764 211.168 118.646 214.438C116.434 215.591 110.471 218.189 103.161 216.843C95.6587 215.496 91.8113 212.611 89.022 210.206C83.251 205.109 78.9228 200.299 74.9792 194.721L191.072 195.009Z" fill="#00A0E2"/>
<path fill-rule="evenodd" clip-rule="evenodd" d="M58.7255 105.27C62.0919 97.6719 66.5163 92.5741 70.9407 89.0154C82.1942 79.7818 100.565 79.2047 109.029 81.4169C115.955 83.1482 120.86 87.3802 128.651 87.3802C136.826 87.3802 141.538 83.2444 147.984 81.4169C156.448 79.3009 174.915 79.9741 186.938 89.2077C190.497 91.9009 193.765 95.5558 195.593 97.5757C191.266 100.75 188.668 103.058 186.552 105.27H58.7255Z" fill="#34BE2D"/>
<path fill-rule="evenodd" clip-rule="evenodd" d="M186.553 105.27C184.533 107.482 183.091 109.599 181.455 112.58C179.533 116.043 177.223 120.756 176.646 127.873H53.0508C53.147 126.719 53.2431 125.469 53.4355 124.218C54.5897 116.62 56.4172 110.368 58.7256 105.27H186.553Z" fill="#FFB400"/>
<path fill-rule="evenodd" clip-rule="evenodd" d="M176.646 127.873C176.55 130.052 176.55 132.235 176.646 134.414C176.935 139.704 178.762 145.571 181.167 150.284L55.4553 149.995C53.724 142.397 52.7622 134.606 53.0507 127.873H176.646Z" fill="#FF7A00"/>
<path fill-rule="evenodd" clip-rule="evenodd" d="M181.166 150.284C182.15 152.325 183.342 154.259 184.724 156.055C192.996 166.635 196.555 166.635 202.999 169.906C202.52 171.058 202.135 172.118 201.653 173.08L62.7653 172.791C60.0721 166.924 57.2828 158.652 55.4553 149.996L181.166 150.284Z" fill="#F41E34"/>
<path fill-rule="evenodd" clip-rule="evenodd" d="M201.653 173.08C197.614 182.506 194.343 189.429 191.072 195.009L74.9805 194.721C71.1332 189.046 67.6706 182.793 63.7271 175.002C63.4385 174.329 63.0538 173.559 62.7653 172.791L201.653 173.08Z" fill="#A2359C"/>
<path fill-rule="evenodd" clip-rule="evenodd" d="M161.352 52.658C160.678 57.4672 158.274 63.6229 154.427 67.5664C150.289 71.9909 143.846 76.8 139.998 79.2046C137.882 80.5512 132.399 80.7435 127.88 81.2245C127.303 77.1848 127.207 73.7222 128.457 69.971C130.092 65.5466 132.21 59.1985 135.575 54.7741C139.71 49.2916 144.423 45.5405 147.02 44.1939C150.484 42.4626 156.255 39.8656 161.256 39C161.449 43.4244 162.123 48.426 161.352 52.658Z" fill="#34BE2D"/>
</g>
<defs>
<clipPath id="clip0_33_732">
<rect width="256" height="256" fill="white"/>
</clipPath>
</defs>
</svg>

        </g>
         
        <g transform="translate(300, 0)">
          <svg xmlns="http://www.w3.org/2000/svg" width="256" height="256" fill="none" viewBox="0 0 256 256"><rect width="256" height="256" fill="#F4F2ED" rx="60"/><path fill="#FEFEFE" fill-rule="evenodd" d="M203.819 68.8354L140.679 31.3552C133.143 26.8816 123.854 26.8816 116.318 31.3552L53.1774 68.8354C45.6434 73.3091 41 81.575 41 90.5223V165.483C41 174.428 45.6434 182.698 53.1796 187.172L116.32 224.645C120.088 226.883 124.29 227.999 128.499 227.999C132.706 227.999 136.909 226.883 140.677 224.645L203.817 187.172C211.353 182.698 215.999 174.428 215.999 165.483V90.5223C215.999 81.575 211.353 73.3091 203.819 68.8354Z" clip-rule="evenodd"/><path fill="#3E474A" fill-rule="evenodd" d="M118.527 220.808L55.3866 183.334C49.2108 179.668 45.3744 172.828 45.3744 165.482V90.5234C45.3744 83.1768 49.2109 76.3374 55.3844 72.673L118.527 35.1928C121.554 33.3958 125.002 32.4455 128.499 32.4455C131.994 32.4455 135.442 33.3958 138.472 35.1928L201.612 72.673C206.816 75.7619 210.326 81.1109 211.313 87.1103C209.219 82.6411 204.496 81.4262 198.993 84.6409L139.259 121.537C131.811 125.891 126.319 130.777 126.314 139.758V213.362C126.31 218.74 128.482 222.223 131.818 223.233C130.722 223.423 129.617 223.555 128.499 223.555C125.002 223.555 121.554 222.605 118.527 220.808ZM203.819 68.8343L140.679 31.3563C136.911 29.1184 132.704 28.0005 128.499 28.0005C124.293 28.0005 120.086 29.1184 116.318 31.3563L53.1774 68.8343C45.6434 73.308 41 81.5761 41 90.5234V165.482C41 174.427 45.6434 182.697 53.1796 187.171L116.32 224.646C120.09 226.882 124.293 228 128.499 228C132.706 228 136.909 226.882 140.677 224.646L203.819 187.171C211.355 182.697 215.999 174.427 215.999 165.482V90.5234C215.999 81.5761 211.355 73.308 203.819 68.8343Z" clip-rule="evenodd"/><path fill="#47B353" fill-rule="evenodd" d="M187.267 172.729L171.545 182.139C171.128 182.382 170.822 182.655 170.819 183.156V187.27C170.819 187.773 171.157 187.982 171.573 187.737L187.539 178.034C187.955 177.791 188.019 177.326 188.022 176.825V173.196C188.022 172.696 187.684 172.486 187.267 172.729Z" clip-rule="evenodd"/><path fill="#FEFEFE" fill-rule="evenodd" d="M153.788 138.098C154.297 137.84 154.716 138.157 154.723 138.823L154.776 144.262C157.053 143.356 159.031 143.114 160.823 143.528C161.212 143.632 161.384 144.161 161.225 144.789L160.028 149.609C159.935 149.973 159.73 150.341 159.483 150.57C159.379 150.672 159.273 150.751 159.168 150.804C159.007 150.886 158.848 150.912 158.696 150.881C157.878 150.696 155.933 150.271 152.873 151.821C149.663 153.446 148.54 156.235 148.562 158.305C148.589 160.777 149.857 161.526 154.235 161.601C160.069 161.698 162.59 164.247 162.651 170.123C162.711 175.893 159.631 182.089 154.919 185.886L155.023 191.27C155.029 191.918 154.608 192.661 154.099 192.919L150.91 194.756C150.399 195.014 149.98 194.696 149.973 194.048L149.918 188.752C147.187 189.887 144.419 190.161 142.651 189.451C142.318 189.321 142.175 188.829 142.307 188.269L143.463 183.401C143.555 183.017 143.758 182.633 144.034 182.389C144.131 182.294 144.232 182.221 144.333 182.17C144.516 182.078 144.695 182.058 144.847 182.115C146.752 182.757 149.189 182.457 151.532 181.271C154.509 179.765 156.5 176.729 156.469 173.713C156.44 170.976 154.959 169.839 151.356 169.812C146.77 169.825 142.495 168.921 142.424 162.17C142.367 156.612 145.257 150.828 149.832 147.171L149.775 141.736C149.768 141.068 150.176 140.333 150.701 140.069L153.788 138.098Z" clip-rule="evenodd"/></svg>
        </g>
         
        <g transform="translate(600, 0)">
          <svg width="256" height="256" viewBox="0 0 256 256" fill="none" xmlns="http://www.w3.org/2000/svg">
<rect width="256" height="256" rx="60" fill="#394AAB"/>
<path d="M134.001 33C169.144 33 199.828 52.0863 216.262 80.4561L216.102 80.183L174.753 103.991C166.607 90.1977 151.672 80.8892 134.54 80.6975L134.001 80.6945C107.875 80.6945 86.6945 101.874 86.6945 127.999C86.6945 136.543 88.9723 144.552 92.9335 151.469C101.088 165.704 116.416 175.306 134.001 175.306C151.693 175.306 167.109 165.582 175.222 151.195L175.025 151.54L216.311 175.458C200.057 203.588 169.794 222.615 135.059 222.994L134.001 223C98.746 223 67.9753 203.796 51.582 175.276C43.5791 161.353 39 145.212 39 127.999C39 75.5334 81.5323 33 134.001 33Z" fill="white"/>
</svg>

        </g>
         
        <g transform="translate(900, 0)">
          <svg xmlns="http://www.w3.org/2000/svg" width="256" height="256" fill="none" viewBox="0 0 256 256"><rect width="256" height="256" fill="#2396ED" rx="60"/><path fill="#fff" d="M141.187 122.123H161.904V103.379H141.187V122.123ZM116.525 122.123H137.241V103.379H116.525V122.123ZM92.3554 122.123H113.072V103.379H92.3554V122.123ZM68.1859 122.123H88.4093V103.379H68.1859V122.123ZM43.5233 122.123H64.2399V103.379H43.5233V122.123ZM68.1859 99.4333H88.4093V80.6896H68.1859V99.4333ZM92.3554 99.4333H113.072V80.6896H92.3554V99.4333ZM116.525 99.4333H137.241V80.6896H116.525V99.4333ZM116.525 76.7436H137.241V58H116.525V76.7436ZM228 113.738C228 113.738 219.121 105.352 200.871 108.312C198.898 94.0075 183.607 85.6222 183.607 85.6222C183.607 85.6222 169.303 102.886 179.661 122.123C176.702 123.603 171.769 125.576 164.37 125.576H28.7257C26.2594 134.948 26.2594 197.097 94.3284 197.097C143.16 197.097 179.661 174.408 196.925 132.974C222.574 134.948 228 113.738 228 113.738Z"/></svg>
        </g>
         
        <g transform="translate(1200, 0)">
          <svg xmlns="http://www.w3.org/2000/svg" width="256" height="256" fill="none" viewBox="0 0 256 256"><rect width="256" height="256" fill="#F4F2ED" rx="60"/><path fill="#2C2255" d="M83.0442 153.434H52.3774C56.4379 167.363 63.9727 179.848 75.0039 190.879C92.59 208.469 113.737 217.249 138.465 217.249C143.409 217.249 148.198 216.881 152.85 216.18C171.477 213.368 187.784 204.947 201.757 190.879C212.859 179.852 220.447 167.363 224.539 153.434H212.094H193.896H83.0442Z"/><path fill="#2C2255" d="M66.1338 111.782H50.1137C49.5276 115.302 49.1283 118.896 48.947 122.581H67.9873H77.5386H215.405H227.989C227.806 118.896 227.407 115.302 226.815 111.782"/><path fill="#2C2255" d="M48.947 132.609C49.1283 136.295 49.5258 139.889 50.1137 143.407H66.7694H79.3939H214.281H226.819C227.409 139.889 227.812 136.295 227.995 132.609"/><path fill="#2C2255" d="M224.542 101.753C220.454 87.7855 212.864 75.2434 201.756 64.1335C187.82 50.1994 171.559 41.8367 152.993 39.0236C148.297 38.3111 143.46 37.9375 138.465 37.9375C113.736 37.9375 92.5878 46.672 75.0035 64.1335C63.9687 75.2434 56.4302 87.7855 52.3716 101.753"/><path fill="#F7941E" d="M43.6227 127.597C43.6227 80.3004 79.1448 41.0018 125.355 34.0897C124.209 34.0476 123.057 34 121.899 34C70.0422 34 28 75.9067 28 127.597C28 179.29 70.0403 221.193 121.899 221.193C123.061 221.193 124.213 221.15 125.363 221.106C79.1448 214.194 43.6227 174.896 43.6227 127.597Z"/><path fill="url(#paint0_linear_159_857)" d="M199.398 122.579C199.097 118.878 198.475 115.268 197.544 111.781H79.3939C78.4635 115.264 77.8389 118.876 77.5386 122.579H199.398Z"/><path fill="url(#paint1_linear_159_857)" d="M199.398 132.609H77.5403C77.8406 136.31 78.4615 139.918 79.3938 143.407H197.546C198.476 139.92 199.097 136.31 199.398 132.609Z"/><path fill="url(#paint2_linear_159_857)" d="M138.469 188.748C163.006 188.748 184.156 174.291 193.896 153.434H83.0425C92.7824 174.291 113.933 188.748 138.469 188.748Z"/><path fill="#fff" d="M68.509 132.608H77.4541H199.626H215.676H227.868C227.952 131.013 228 129.407 228 127.788C228 126.039 227.936 124.306 227.837 122.577H215.674H199.625H77.4522H67.8753H48.9467C48.8478 124.302 48.7837 126.039 48.7837 127.788C48.7837 129.407 48.8313 131.013 48.9156 132.608H68.509Z"/><path fill="#fff" d="M82.685 101.753H52.3699C51.3736 105.018 50.7307 108.368 50.1135 111.784H65.7271H79.022H197.482H214.258H226.249C225.63 108.372 224.834 105.022 223.839 101.753"/><path fill="#fff" d="M214.733 143.405H197.956H79.4983H66.839H50.1118C50.7125 146.817 51.3957 150.165 52.3756 153.434H83.1576H194.297H212.542H224.425C225.403 150.168 226.193 146.82 226.795 143.405H214.733Z"/><defs><linearGradient id="paint0_linear_159_857" x1="138.467" x2="138.467" y1="229.42" y2="94.558" gradientUnits="userSpaceOnUse"><stop offset=".303" stop-color="#473788"/><stop offset=".872" stop-color="#2C2255"/></linearGradient><linearGradient id="paint1_linear_159_857" x1="138.468" x2="138.468" y1="229.422" y2="94.56" gradientUnits="userSpaceOnUse"><stop offset=".303" stop-color="#473788"/><stop offset=".872" stop-color="#2C2255"/></linearGradient><linearGradient id="paint2_linear_159_857" x1="138.469" x2="138.469" y1="229.417" y2="94.564" gradientUnits="userSpaceOnUse"><stop offset=".303" stop-color="#473788"/><stop offset=".863" stop-color="#2C2255"/></linearGradient></defs></svg>
        </g>
         
        <g transform="translate(1500, 0)">
          <svg xmlns="http://www.w3.org/2000/svg" width="256" height="256" fill="none" viewBox="0 0 256 256"><rect width="256" height="256" fill="url(#paint0_linear_161_1073)" rx="60"/><path fill="#fff" fill-rule="evenodd" d="M86.5298 227.747C86.5298 227.747 98.2004 228.569 113.214 227.251C119.294 226.718 142.379 224.46 159.638 220.69C159.638 220.69 180.681 216.206 191.939 212.074C203.718 207.752 210.128 204.083 213.013 198.884C212.887 197.819 213.901 194.042 208.469 191.773C194.581 185.972 178.475 187.021 146.603 186.348C111.26 185.139 99.502 179.248 93.2389 174.503C87.2329 169.69 90.253 156.373 115.987 144.643C128.95 138.396 179.767 126.869 179.767 126.869C162.653 118.445 130.74 103.636 124.18 100.438C118.427 97.6336 109.22 93.4105 107.224 88.3012C104.961 83.3961 112.568 79.1707 116.817 77.9607C130.501 74.0299 149.82 71.5869 167.402 71.3126C176.24 71.1747 177.674 70.6085 177.674 70.6085C189.869 68.5941 197.896 60.286 194.552 47.1284C191.549 33.6979 175.713 25.8063 160.664 28.5383C146.493 31.111 112.336 40.9911 112.336 40.9911C154.556 40.6273 161.623 41.329 164.779 45.7231C166.643 48.3181 163.932 51.8763 152.672 53.7076C140.413 55.7013 114.931 58.1023 114.931 58.1023C90.4855 59.548 73.266 59.6448 68.1015 70.5334C64.7275 77.6471 71.6995 83.9362 74.7554 87.8728C87.669 102.174 106.322 109.887 118.328 115.567C122.846 117.704 136.101 121.74 136.101 121.74C97.1495 119.606 69.0516 131.517 52.5696 145.23C33.9278 162.401 42.1744 182.867 80.3661 195.469C102.924 202.912 114.111 206.413 147.759 203.396C167.578 202.332 170.702 202.965 170.9 204.584C171.178 206.864 148.886 212.528 142.801 214.276C127.318 218.723 86.7329 227.703 86.5298 227.747V227.747Z" clip-rule="evenodd"/><defs><linearGradient id="paint0_linear_161_1073" x1="0" x2="256" y1="0" y2="256" gradientUnits="userSpaceOnUse"><stop stop-color="#8381C5"/><stop offset=".615" stop-color="#7E55B3"/><stop offset="1" stop-color="#A52ECB"/></linearGradient></defs></svg>
        </g>
         
        <g transform="translate(1800, 0)">
          <svg xmlns="http://www.w3.org/2000/svg" width="256" height="256" fill="none" viewBox="0 0 256 256"><rect width="256" height="256" fill="#F03C2E" rx="60"/><g clip-path="url(#clip0_7_283)"><path fill="#fff" d="M224.225 119.094L136.906 31.775C135.711 30.5787 134.291 29.6298 132.729 28.9824C131.166 28.3349 129.491 28.0017 127.8 28.0017C126.109 28.0017 124.434 28.3349 122.871 28.9824C121.309 29.6298 119.889 30.5787 118.694 31.775L100.569 49.9L123.569 72.9C128.919 71.025 135.044 72.3062 139.306 76.5687C141.335 78.6014 142.752 81.1638 143.394 83.9632C144.036 86.7626 143.878 89.6862 142.937 92.4L165.106 114.569C170.469 112.719 176.656 113.912 180.937 118.206C182.361 119.63 183.49 121.32 184.26 123.18C185.03 125.04 185.426 127.033 185.426 129.046C185.425 131.059 185.029 133.052 184.258 134.912C183.487 136.771 182.358 138.461 180.934 139.884C179.511 141.308 177.821 142.436 175.961 143.206C174.101 143.977 172.108 144.373 170.095 144.372C168.082 144.372 166.088 143.975 164.229 143.205C162.369 142.434 160.679 141.305 159.256 139.881C154.756 135.381 153.644 128.756 155.919 123.212L135.244 102.537V156.944C136.745 157.686 138.116 158.666 139.306 159.844C140.729 161.267 141.858 162.956 142.629 164.816C143.399 166.675 143.795 168.668 143.795 170.681C143.795 172.694 143.399 174.687 142.629 176.546C141.858 178.406 140.729 180.096 139.306 181.519C137.883 182.942 136.193 184.071 134.334 184.841C132.474 185.611 130.481 186.008 128.469 186.008C126.456 186.008 124.463 185.611 122.604 184.841C120.744 184.071 119.054 182.942 117.631 181.519C116.206 180.096 115.076 178.407 114.305 176.548C113.533 174.688 113.136 172.694 113.136 170.681C113.136 168.668 113.533 166.675 114.305 164.815C115.076 162.955 116.206 161.266 117.631 159.844C119.112 158.369 120.756 157.25 122.65 156.5V101.587C120.825 100.837 119.112 99.7312 117.631 98.2437C115.479 96.0943 114.016 93.3526 113.428 90.3684C112.841 87.3841 113.155 84.2924 114.331 81.4875L91.6437 58.8125L31.7687 118.625C30.5716 119.821 29.6219 121.241 28.9739 122.804C28.3259 124.367 27.9924 126.042 27.9924 127.734C27.9924 129.426 28.3259 131.102 28.9739 132.665C29.6219 134.228 30.5716 135.648 31.7687 136.844L119.094 224.156C120.289 225.352 121.709 226.301 123.271 226.949C124.834 227.596 126.509 227.929 128.2 227.929C129.891 227.929 131.566 227.596 133.129 226.949C134.691 226.301 136.111 225.352 137.306 224.156L224.225 137.375C225.422 136.179 226.372 134.759 227.02 133.196C227.668 131.633 228.001 129.958 228.001 128.266C228.001 126.574 227.668 124.898 227.02 123.335C226.372 121.772 225.422 120.352 224.225 119.156"/></g><defs><clipPath id="clip0_7_283"><rect width="200" height="200" fill="#fff" transform="translate(28 28)"/></clipPath></defs></svg>
        </g>
         
        <g transform="translate(0, 300)">
          <svg width="256" height="256" viewBox="0 0 256 256" fill="none" xmlns="http://www.w3.org/2000/svg">
<rect width="256" height="256" rx="60" fill="#F4F2ED"/>
<path d="M128.001 30C72.7791 30 28 74.7708 28 130.001C28 174.184 56.6533 211.668 96.3867 224.891C101.384 225.817 103.219 222.722 103.219 220.081C103.219 217.696 103.126 209.819 103.083 201.463C75.2631 207.512 69.3927 189.664 69.3927 189.664C64.8437 178.105 58.2894 175.032 58.2894 175.032C49.2163 168.825 58.9733 168.953 58.9733 168.953C69.0151 169.658 74.3026 179.258 74.3026 179.258C83.2217 194.546 97.6965 190.126 103.403 187.571C104.301 181.107 106.892 176.696 109.752 174.199C87.5405 171.67 64.1913 163.095 64.1913 124.778C64.1913 113.86 68.0977 104.939 74.4947 97.9362C73.4564 95.4175 70.0335 85.2465 75.4635 71.4722C75.4635 71.4722 83.8609 68.7845 102.971 81.7226C110.948 79.5069 119.502 78.3958 128.001 78.3577C136.499 78.3958 145.061 79.5069 153.052 81.7226C172.139 68.7845 180.525 71.4722 180.525 71.4722C185.968 85.2465 182.544 95.4175 181.505 97.9362C187.917 104.939 191.797 113.86 191.797 124.778C191.797 163.187 168.403 171.644 146.135 174.119C149.722 177.223 152.918 183.308 152.918 192.638C152.918 206.018 152.802 216.787 152.802 220.081C152.802 222.742 154.602 225.86 159.671 224.878C199.383 211.64 228 174.169 228 130.001C228 74.7708 183.227 30 128.001 30ZM65.4536 172.453C65.2333 172.95 64.4517 173.099 63.7396 172.758C63.0143 172.432 62.6069 171.754 62.8421 171.256C63.0574 170.744 63.8406 170.602 64.5643 170.945C65.2913 171.271 65.7053 171.955 65.4536 172.453ZM70.3725 176.842C69.8956 177.285 68.9633 177.079 68.3307 176.38C67.6766 175.683 67.554 174.751 68.0376 174.302C68.5294 173.86 69.4336 174.067 70.0893 174.764C70.7434 175.47 70.8709 176.395 70.3725 176.842ZM73.7471 182.458C73.1344 182.884 72.1325 182.485 71.5132 181.595C70.9004 180.706 70.9004 179.64 71.5264 179.212C72.1474 178.785 73.1344 179.169 73.762 180.052C74.373 180.956 74.373 182.023 73.7471 182.458ZM79.4542 188.962C78.9061 189.566 77.7386 189.404 76.8841 188.579C76.0098 187.773 75.7663 186.629 76.3161 186.024C76.8709 185.418 78.045 185.589 78.9061 186.407C79.7738 187.211 80.0387 188.364 79.4542 188.962ZM86.8301 191.157C86.5883 191.941 85.4639 192.297 84.3312 191.964C83.2002 191.621 82.46 190.704 82.6885 189.912C82.9237 189.124 84.053 188.753 85.194 189.109C86.3234 189.45 87.0652 190.361 86.8301 191.157ZM95.2242 192.089C95.2523 192.913 94.2919 193.597 93.1029 193.612C91.9073 193.639 90.9402 192.971 90.9269 192.16C90.9269 191.327 91.8659 190.65 93.0615 190.63C94.2505 190.607 95.2242 191.269 95.2242 192.089ZM103.47 191.773C103.613 192.577 102.787 193.404 101.606 193.624C100.445 193.836 99.3702 193.339 99.2229 192.541C99.0788 191.716 99.92 190.89 101.079 190.676C102.262 190.471 103.32 190.955 103.47 191.773Z" fill="#161614"/>
</svg>

        </g>
         
        <g transform="translate(300, 300)">
          <svg width="256" height="256" viewBox="0 0 256 256" fill="none" xmlns="http://www.w3.org/2000/svg">
<rect width="256" height="256" rx="60" fill="#F4F4ED"/>
<path fill-rule="evenodd" clip-rule="evenodd" d="M76.0652 43C94.3271 43 109.13 57.8034 109.13 76.0652C109.13 94.3271 94.3271 109.13 76.0652 109.13C57.8034 109.13 43 94.3271 43 76.0652C43 57.8034 57.8034 43 76.0652 43Z" stroke="#2088FF" stroke-width="7.34783" stroke-linecap="round" stroke-linejoin="round"/>
<path fill-rule="evenodd" clip-rule="evenodd" d="M123.826 109.13C136 109.13 145.87 119 145.87 131.174C145.87 143.348 136 153.217 123.826 153.217C111.652 153.217 101.783 143.348 101.783 131.174C101.783 119 111.652 109.13 123.826 109.13Z" stroke="#2088FF" stroke-width="7.34783" stroke-linecap="round" stroke-linejoin="round"/>
<path fill-rule="evenodd" clip-rule="evenodd" d="M123.826 167.913C136 167.913 145.87 177.782 145.87 189.957C145.87 202.131 136 212 123.826 212C111.652 212 101.783 202.131 101.783 189.957C101.783 177.782 111.652 167.913 123.826 167.913Z" stroke="#2088FF" stroke-width="7.34783" stroke-linecap="round" stroke-linejoin="round"/>
<path fill-rule="evenodd" clip-rule="evenodd" d="M189.957 167.913C202.131 167.913 212 177.782 212 189.957C212 202.131 202.131 212 189.957 212C177.782 212 167.913 202.131 167.913 189.957C167.913 177.782 177.782 167.913 189.957 167.913Z" stroke="#79B8FF" stroke-width="7.34783" stroke-linecap="round" stroke-linejoin="round"/>
<path d="M131.308 126.056L120.032 137.317L114.555 131.859" stroke="#2088FF" stroke-width="7.34783" stroke-linecap="round" stroke-linejoin="round"/>
<path fill-rule="evenodd" clip-rule="evenodd" d="M189.957 109.13C202.131 109.13 212 119 212 131.174C212 143.348 202.131 153.217 189.957 153.217C177.782 153.217 167.913 143.348 167.913 131.174C167.913 119 177.782 109.13 189.957 109.13Z" stroke="#2088FF" stroke-width="7.34783" stroke-linecap="round" stroke-linejoin="round"/>
<path d="M197.438 126.056L186.162 137.317L180.686 131.859" stroke="#2088FF" stroke-width="7.34783" stroke-linecap="round" stroke-linejoin="round"/>
<path d="M65.0435 64.3532C65.0435 61.4617 68.2291 59.7035 70.6756 61.2446L89.461 73.0784C91.7583 74.5255 91.7462 77.8786 89.439 79.3093L70.6534 90.9574C68.206 92.4747 65.0435 90.7145 65.0435 87.8349V64.3532Z" stroke="#2088FF" stroke-width="7.34783" stroke-linecap="round" stroke-linejoin="round"/>
<path d="M72.3911 109.13V164.239C72.3911 178.442 84.0639 189.956 98.1085 189.956H101.782" stroke="#2088FF" stroke-width="7.34783" stroke-linecap="round" stroke-linejoin="round"/>
<path d="M101.595 134.847C103.624 134.847 105.269 133.203 105.269 131.173C105.269 129.144 103.624 127.5 101.595 127.5V134.847ZM68.7173 109.259C68.7173 123.391 80.1736 134.847 94.3054 134.847V127.5C84.2315 127.5 76.0651 119.333 76.0651 109.259H68.7173ZM94.3054 134.847H101.595V127.5H94.3054V134.847Z" fill="#2088FF"/>
<path d="M146.071 131.174H167.911" stroke="#2088FF" stroke-width="7.34783" stroke-linecap="round" stroke-linejoin="round"/>
<path fill-rule="evenodd" clip-rule="evenodd" d="M116.478 186.283C118.505 186.283 120.152 187.929 120.152 189.957C120.152 191.987 118.505 193.631 116.478 193.631C114.451 193.631 112.804 191.987 112.804 189.957C112.804 187.929 114.451 186.283 116.478 186.283Z" fill="#79B8FF"/>
<path fill-rule="evenodd" clip-rule="evenodd" d="M131.174 186.283C133.201 186.283 134.848 187.929 134.848 189.957C134.848 191.987 133.201 193.631 131.174 193.631C129.147 193.631 127.5 191.987 127.5 189.957C127.5 187.929 129.147 186.283 131.174 186.283Z" fill="#79B8FF"/>
<path d="M164.257 189.981L160.537 190.103" stroke="#79B8FF" stroke-width="7.34783" stroke-linecap="round"/>
</svg>

        </g>
         
        <g transform="translate(600, 300)">
          <svg xmlns="http://www.w3.org/2000/svg" width="256" height="256" fill="none" viewBox="0 0 256 256"><rect width="256" height="256" fill="#00B4E0" rx="60"/><path fill="#fff" d="M40.5 113.234C40.1 113.234 40 113.034 40.2 112.734L42.3 110.034C42.5 109.734 43 109.534 43.4 109.534H79.1C79.5 109.534 79.6 109.834 79.4 110.134L77.7 112.734C77.5 113.034 77 113.334 76.7 113.334L40.5 113.234Z"/><path fill="#fff" d="M25.4 122.434C25 122.434 24.9 122.234 25.1 121.934L27.2 119.234C27.4 118.934 27.9 118.734 28.3 118.734H73.9C74.3 118.734 74.5 119.034 74.4 119.334L73.6 121.734C73.5 122.134 73.1 122.334 72.7 122.334L25.4 122.434Z"/><path fill="#fff" d="M49.6 131.634C49.2 131.634 49.1 131.334 49.3 131.034L50.7 128.534C50.9 128.234 51.3 127.934 51.7 127.934H71.7C72.1 127.934 72.3 128.234 72.3 128.634L72.1 131.034C72.1 131.434 71.7 131.734 71.4 131.734L49.6 131.634Z"/><path fill="#fff" d="M153.4 111.434C147.1 113.034 142.8 114.234 136.6 115.834C135.1 116.234 135 116.334 133.7 114.834C132.2 113.134 131.1 112.034 129 111.034C122.7 107.934 116.6 108.834 110.9 112.534C104.1 116.934 100.6 123.434 100.7 131.534C100.8 139.534 106.3 146.134 114.2 147.234C121 148.134 126.7 145.734 131.2 140.634C132.1 139.534 132.9 138.334 133.9 136.934C130.3 136.934 125.8 136.934 114.6 136.934C112.5 136.934 112 135.634 112.7 133.934C114 130.834 116.4 125.634 117.8 123.034C118.1 122.434 118.8 121.434 120.3 121.434C125.4 121.434 144.2 121.434 156.7 121.434C156.5 124.134 156.5 126.834 156.1 129.534C155 136.734 152.3 143.334 147.9 149.134C140.7 158.634 131.3 164.534 119.4 166.134C109.6 167.434 100.5 165.534 92.5 159.534C85.1 153.934 80.9 146.534 79.8 137.334C78.5 126.434 81.7 116.634 88.3 108.034C95.4 98.7343 104.8 92.8343 116.3 90.7343C125.7 89.0343 134.7 90.1343 142.8 95.6343C148.1 99.1343 151.9 103.934 154.4 109.734C155 110.634 154.6 111.134 153.4 111.434Z"/><path fill="#fff" d="M186.5 166.734C177.4 166.534 169.1 163.934 162.1 157.934C156.2 152.834 152.5 146.334 151.3 138.634C149.5 127.334 152.6 117.334 159.4 108.434C166.7 98.8343 175.5 93.8343 187.4 91.7343C197.6 89.9343 207.2 90.9343 215.9 96.8343C223.8 102.234 228.7 109.534 230 119.134C231.7 132.634 227.8 143.634 218.5 153.034C211.9 159.734 203.8 163.934 194.5 165.834C191.8 166.334 189.1 166.434 186.5 166.734ZM210.3 126.334C210.2 125.034 210.2 124.034 210 123.034C208.2 113.134 199.1 107.534 189.6 109.734C180.3 111.834 174.3 117.734 172.1 127.134C170.3 134.934 174.1 142.834 181.3 146.034C186.8 148.434 192.3 148.134 197.6 145.434C205.5 141.334 209.8 134.934 210.3 126.334Z"/></svg>
        </g>
         
        <g transform="translate(900, 300)">
          <svg xmlns="http://www.w3.org/2000/svg" width="256" height="256" fill="none" viewBox="0 0 256 256"><rect width="256" height="256" fill="#E14E1D" rx="60"/><path fill="#fff" d="M48 38L56.6098 134.593H167.32L163.605 176.023L127.959 185.661L92.38 176.037L90.0012 149.435H57.9389L62.5236 200.716L127.951 218.888L193.461 200.716L202.244 102.655H85.8241L82.901 69.9448H205.041H205.139L208 38H48Z"/><path fill="#EBEBEB" d="M128 38H48L56.6098 134.593H128V102.655H85.8241L82.901 69.9448H128V38Z"/><path fill="#EBEBEB" d="M128 185.647L127.959 185.661L92.38 176.037L90.0012 149.435H57.9388L62.5236 200.716L127.951 218.888L128 218.874V185.647Z"/></svg>
        </g>
         
        <g transform="translate(1200, 300)">
          <svg xmlns="http://www.w3.org/2000/svg" width="256" height="256" fill="none" viewBox="0 0 256 256"><rect width="256" height="256" fill="#F4F2ED" rx="60"/><path fill="#4E7896" d="M101.634 182.619C101.634 182.619 93.9548 187.293 106.979 188.63C122.707 190.634 131.023 190.299 148.386 186.962C148.386 186.962 153.06 189.971 159.406 192.306C120.331 209.002 70.9089 191.304 101.634 182.619ZM96.6252 160.914C96.6252 160.914 88.2753 167.26 101.299 168.593C118.327 170.262 131.69 170.597 154.732 165.926C154.732 165.926 157.741 169.267 162.747 170.936C115.664 184.961 62.8975 172.269 96.6252 160.917V160.914ZM188.795 198.984C188.795 198.984 194.471 203.658 182.449 207.334C160.073 214.012 88.6104 216.019 68.5735 207.334C61.564 204.325 74.9197 199.982 79.2587 199.319C83.6012 198.317 85.9366 198.317 85.9366 198.317C78.2569 192.973 34.8424 209.337 63.8959 214.046C143.709 227.073 209.499 208.37 188.792 199.018L188.795 198.984ZM105.307 138.203C105.307 138.203 68.9052 146.888 92.2793 149.89C102.298 151.223 122 150.892 140.368 149.555C155.396 148.221 170.458 145.548 170.458 145.548C170.458 145.548 165.113 147.886 161.441 150.222C124.342 159.915 53.2107 155.573 73.5827 145.554C90.9526 137.204 105.307 138.203 105.307 138.203V138.203ZM170.423 174.604C207.83 155.234 190.46 136.534 178.438 138.873C175.429 139.54 174.096 140.207 174.096 140.207C174.096 140.207 175.097 138.203 177.436 137.54C201.145 129.19 219.849 162.586 169.757 175.61C169.757 175.61 170.092 175.275 170.423 174.608V174.604ZM108.979 227.364C145.046 229.703 200.147 226.03 201.484 208.995C201.484 208.995 198.817 215.673 171.764 220.683C141.042 226.359 102.968 225.692 80.5957 222.016C80.5957 222.016 85.2698 226.023 108.982 227.36L108.979 227.364Z"/><path fill="#F58219" d="M147.685 28C147.685 28 168.389 49.0388 127.983 80.7594C95.5891 106.472 120.632 121.168 127.983 137.861C108.948 120.833 95.2609 105.802 104.606 91.7762C118.331 71.0828 156.062 61.0644 147.685 28ZM137 123.842C146.683 134.862 134.333 144.881 134.333 144.881C134.333 144.881 159.044 132.195 147.692 116.494C137.338 101.466 129.324 94.1184 172.738 69.0689C172.738 69.0689 104.277 86.0968 137.007 123.835L137 123.842Z"/></svg>
        </g>
         
        <g transform="translate(1500, 300)">
          <svg width="256" height="256" viewBox="0 0 256 256" fill="none" xmlns="http://www.w3.org/2000/svg">
<rect width="256" height="256" rx="60" fill="#F0DB4F"/>
<path d="M67.3117 213.932L86.9027 202.076C90.6821 208.777 94.1202 214.447 102.367 214.447C110.272 214.447 115.256 211.355 115.256 199.327V117.529H139.314V199.667C139.314 224.584 124.708 235.926 103.398 235.926C84.1533 235.926 72.9819 225.959 67.3113 213.93" fill="#323330"/>
<path d="M152.381 211.354L171.969 200.013C177.126 208.434 183.828 214.62 195.684 214.62C205.653 214.62 212.009 209.636 212.009 202.762C212.009 194.514 205.479 191.592 194.481 186.782L188.468 184.203C171.111 176.815 159.597 167.535 159.597 147.945C159.597 129.901 173.345 116.153 194.826 116.153C210.12 116.153 221.118 121.481 229.022 135.4L210.291 147.429C206.166 140.04 201.7 137.119 194.826 137.119C187.78 137.119 183.312 141.587 183.312 147.429C183.312 154.646 187.78 157.568 198.09 162.037L204.104 164.614C224.553 173.379 236.067 182.313 236.067 202.418C236.067 224.072 219.055 235.928 196.2 235.928C173.861 235.928 159.426 225.274 152.381 211.354" fill="#323330"/>
</svg>

        </g>
         
        <g transform="translate(1800, 300)">
          <svg width="256" height="256" viewBox="0 0 256 256" fill="none" xmlns="http://www.w3.org/2000/svg">
<rect width="256" height="256" rx="60" fill="#F4F2ED"/>
<path d="M67.8948 193.68H65.7476C64.8888 202.533 63.6863 213.294 48.57 213.294H41.6131C37.5764 213.294 37.4046 212.687 37.4046 209.823V163.738C37.4046 160.787 37.4046 159.572 45.4781 159.572H48.3124V156.968C45.2204 157.229 37.4905 157.229 33.9691 157.229C30.6195 157.229 23.9202 157.229 21 156.968V159.572H22.9754C29.5888 159.572 29.7606 160.526 29.7606 163.651V209.215C29.7606 212.34 29.5888 213.294 22.9754 213.294H21V215.985H65.5759L67.8948 193.68V193.68Z" fill="black"/>
<path d="M66.4348 156.881C66.0913 155.84 65.9195 155.493 64.8029 155.493C63.6864 155.493 63.4287 155.84 63.0852 156.881L49.2572 192.291C48.656 193.767 47.6253 196.457 42.3003 196.457V198.627H55.6129V196.457C52.9504 196.457 51.3185 195.242 51.3185 193.506C51.3185 193.072 51.4044 192.899 51.5762 192.291L54.4964 184.827H71.5022L74.9377 193.68C75.1095 194.027 75.2813 194.461 75.2813 194.721C75.2813 196.457 72.0175 196.457 70.3857 196.457V198.627H87.3056V196.457H86.1032C82.0664 196.457 81.637 195.85 81.0358 194.114L66.4348 156.881V156.881ZM62.9993 163.043L70.6433 182.658H55.3553L62.9993 163.043V163.043Z" fill="black"/>
<path d="M135.231 157.489H82.9251L81.3792 176.93H83.4405C84.6429 162.956 85.9312 160.092 98.9003 160.092C100.446 160.092 102.679 160.092 103.538 160.266C105.342 160.613 105.342 161.568 105.342 163.564V209.128C105.342 212.079 105.342 213.294 96.3237 213.294H92.8881V215.985C96.4095 215.724 105.084 215.724 109.035 215.724C112.986 215.724 121.832 215.724 125.354 215.985V213.294H121.918C112.9 213.294 112.9 212.079 112.9 209.128V163.564C112.9 161.828 112.9 160.613 114.446 160.266C115.391 160.092 117.71 160.092 119.342 160.092C132.225 160.092 133.513 162.956 134.716 176.93H136.863C136.863 176.93 135.231 157.489 135.231 157.489Z" fill="black"/>
<path d="M181.267 213.207H179.12C176.972 226.486 174.997 232.822 160.31 232.822H148.973C144.936 232.822 144.764 232.214 144.764 229.35V206.264H152.408C160.74 206.264 161.684 209.042 161.684 216.419H163.832V193.506H161.684C161.684 200.883 160.74 203.574 152.408 203.574H144.764V182.831C144.764 179.967 144.936 179.36 148.973 179.36H159.967C173.107 179.36 175.341 184.133 176.715 196.197H178.862C178.862 196.197 176.457 176.756 176.457 176.756H128.36V179.36H130.335C136.949 179.36 137.12 180.314 137.12 183.439V228.743C137.12 231.867 136.949 232.822 130.335 232.822H128.36V235.512H177.66L181.267 213.207V213.207Z" fill="black"/>
<path d="M207.119 182.571L218.886 165.213C220.69 162.436 223.61 159.659 231.254 159.572V156.968H210.812V159.572C214.248 159.659 216.138 161.568 216.138 163.564C216.138 164.432 215.966 164.606 215.365 165.56L205.573 180.141C205.573 180.141 194.58 163.477 194.58 163.477C194.408 163.217 193.978 162.523 193.978 162.175C193.978 161.134 195.868 159.659 199.475 159.572V156.968C196.555 157.229 190.285 157.229 187.022 157.229C184.359 157.229 179.034 157.142 175.856 156.968V159.572H177.488C182.212 159.572 183.844 160.179 185.476 162.609L201.193 186.65L187.193 207.566C185.991 209.302 183.414 213.294 174.825 213.294V215.985H195.267V213.294C191.316 213.208 189.856 210.864 189.856 209.302C189.856 208.521 190.113 208.174 190.715 207.219L202.825 189.08L216.395 209.736C216.567 210.083 216.825 210.43 216.825 210.691C216.825 211.732 214.935 213.208 211.242 213.294V215.985C214.248 215.724 220.518 215.724 223.696 215.724C227.303 215.724 231.254 215.811 234.861 215.985V213.294H233.229C228.763 213.294 226.959 212.86 225.156 210.17L207.119 182.571V182.571Z" fill="black"/>
<path d="M66.7719 20.0002C68.2818 22.7202 69.8515 25.0409 71.4904 27.0521C70.7411 26.9428 69.9691 26.8785 69.1673 26.8869C67.5836 26.9036 65.8906 27.1665 64.0565 27.744C67.257 30.4241 69.9618 32.38 72.3477 33.8874C68.6619 32.7101 64.6927 32.5424 60.0302 34.7547C63.4359 36.8858 66.2945 38.426 68.7965 39.5765C64.896 38.8576 60.8514 39.1851 56.4371 42.0958C59.3516 43.3945 61.872 44.3696 64.1086 45.1107C60.4373 45.239 56.8035 46.3729 53.247 49.7466C56.332 50.512 58.9752 51.0194 61.3003 51.3573C58.4546 51.9323 55.6631 53.2973 52.9577 56.0242C55.0538 56.4771 56.9406 56.8189 58.6674 57.0774C56.5416 58.1049 54.5288 59.6973 52.6892 62.1366C55.1046 62.3242 57.2416 62.4075 59.163 62.4154C56.8382 63.4911 54.662 65.1907 52.7202 67.9187C56.1701 68.0911 59.0519 68.0743 61.5378 67.9289C58.8059 69.0458 56.288 70.933 54.1347 74.1963C58.4223 74.2589 61.818 74.053 64.6659 73.7007C61.1311 74.6604 57.8591 76.5901 55.167 80.6701C58.6305 80.7206 61.5214 80.5946 64.0052 80.3603C60.9687 82.015 58.3608 84.5249 56.6435 88.8064C59.7696 88.2144 62.3895 87.5806 64.6455 86.917C62.2956 88.6271 60.3204 91.029 58.9976 94.6401C61.0948 94.1765 62.956 93.6911 64.6351 93.2049C63.1278 95.0273 61.9659 97.3083 61.3105 100.298C63.5878 99.4595 65.5576 98.6467 67.3093 97.8511C65.6451 99.7986 64.374 102.264 63.7472 105.554C66.9534 104.272 69.5613 103.047 71.7594 101.878C69.7444 104.032 68.2452 106.803 67.6501 110.665C71.5537 108.941 74.5486 107.345 76.9838 105.843C74.1871 108.187 72.0366 111.303 71.2947 116.116C76.3954 113.865 79.9551 111.822 82.7246 109.932C81.5352 112.337 80.9048 115.154 81.2068 118.666C86.1365 114.884 89.2593 111.823 91.5831 109.126C91.4263 110.868 91.55 112.762 92.0684 114.857C95.6074 108.776 99.1244 107.001 102.764 104.972C96.9668 107.891 97.8262 110.088 97.8262 112.637C102.249 107.98 108.416 103.041 110.303 99.9474C107.78 103.735 106.754 107.322 106.09 110.489C93.1853 117.314 85.328 119.097 76.5191 121.825C79.9359 123.079 83.5976 124.306 82.0843 126.048L78.0472 130.075C80.6276 129.273 83.2587 128.128 85.5432 129.693C85.319 131.81 82.6437 132.878 80.3599 134.112C84.3805 132.663 85.25 132.998 86.3071 133.338C86.8353 135.874 85.0025 137.238 83.8085 138.913C93.9358 131.213 107.15 125.13 116.456 122.589C129.546 118.181 146.424 113.599 151.014 102.425L155.619 83.9945C161 78.1704 165.95 72.1307 168.298 64.7903C183.283 61.8913 195.399 62.9379 208.039 63.2622C206.887 63.0702 169.445 56.7264 169.445 56.7264C158.502 41.7548 142.191 51.9313 136.817 66.7209C135.461 70.4538 127.723 70.455 125.481 66.7107C116.614 47.6211 89.6869 27.4384 66.7726 20.0001V20L66.7719 20.0002Z" fill="#008080"/>
<path d="M155.177 59.0692L155.079 59.2267C154.691 59.9501 154.034 60.4439 153.11 60.7426C152.187 61.0412 151.004 61.1369 149.626 61.0772L148.76 61.0378L149.39 61.6482C149.709 61.9558 149.799 62.2013 149.803 62.4159C149.808 62.6305 149.715 62.8623 149.508 63.1246C149.093 63.6494 148.269 64.2191 147.5 64.798L147.244 64.9751L147.421 65.2311C148.062 66.2151 148.356 66.9726 148.425 67.554C148.494 68.1355 148.359 68.5526 148.09 68.9123C147.553 69.6321 146.375 70.1198 145.314 70.7235L145.118 70.8219L145.157 71.0582C145.248 71.6116 145.099 72.0639 144.704 72.5149C144.309 72.9658 143.645 73.3959 142.755 73.7749L142.519 73.8733L142.558 74.1293C142.736 75.3144 143.092 76.3457 143.838 77.0034C144.52 77.6052 145.553 77.7638 146.87 77.4955C147.099 78.7589 147.428 79.9078 148.189 80.6651C148.959 81.4326 150.18 81.6596 151.811 81.236C152.178 82.1208 152.715 82.7513 153.327 83.1652C153.999 83.6197 154.878 83.803 155.6 84.0275L156.028 83.567C155.311 83.3443 154.252 83 153.681 82.614C153.11 82.2281 152.646 81.6986 152.323 80.7833L152.224 80.4683L151.909 80.5667C150.232 81.0822 149.302 80.8501 148.661 80.2123C148.021 79.5746 147.661 78.4217 147.441 77.0822L147.382 76.7278L147.027 76.8262C145.645 77.187 144.828 77.0025 144.271 76.5112C143.751 76.0524 143.443 75.2389 143.267 74.2276C144.068 73.8573 144.755 73.4522 145.196 72.9481C145.628 72.4555 145.814 71.8475 145.787 71.2157C146.764 70.6781 147.943 70.2162 148.622 69.3061C148.977 68.8303 149.161 68.2049 149.075 67.4753C148.996 66.8115 148.671 66.0446 148.11 65.1326C148.799 64.6254 149.546 64.117 150.02 63.5183C150.283 63.1855 150.481 62.8171 150.472 62.3963C150.468 62.1642 150.245 61.9527 150.118 61.7269C151.316 61.7426 152.407 61.6637 153.307 61.3725C154.256 61.0658 155.001 60.5068 155.492 59.7386C156.91 59.7457 158.378 60.0575 159.863 60.2504C161.388 60.4487 162.94 60.5019 164.41 59.8567L164.135 59.2465C162.834 59.8173 161.445 59.7936 159.961 59.6008C158.477 59.408 156.931 59.058 155.374 59.0693H155.177L155.177 59.0692Z" fill="white"/>
<path d="M160.686 58.8242C160.686 60.3691 159.434 61.6215 157.889 61.6215C156.344 61.6215 155.092 60.3691 155.092 58.8242C155.092 57.2794 156.344 56.0269 157.889 56.0269C159.434 56.0269 160.686 57.2793 160.686 58.8242Z" fill="white" stroke="white" stroke-width="0.660673"/>
<path d="M169.041 56.2C166.529 59.467 165.898 58.6232 164.369 59.1709L164.113 59.2693L164.153 59.5449C164.741 62.8263 166.686 63.8689 168.204 65.0616L168.288 64.7962L168.692 64.7193C167.171 63.5236 165.506 62.5109 164.901 59.7221C166.014 59.4587 167.077 59.7955 169.448 56.7101L169.041 56.2001V56.2Z" fill="white"/>
<path d="M72.3442 33.8794C77.0896 36.8218 84.8996 39.856 89.9155 43.0258C92.6748 44.7827 95.1532 46.5334 97.0813 48.0457C99.0094 49.5582 100.435 51.1207 100.96 51.6287C101.484 52.1367 101.84 51.8966 101.491 51.2349C101.142 50.5733 99.4247 49.0436 97.4751 47.5142C95.5255 45.9849 93.0455 44.2419 90.2698 42.4745C84.7184 38.9398 78.2029 35.7793 72.3445 33.879L72.3442 33.8794Z" fill="white"/>
<path d="M71.4905 27.0505C73.4798 27.5099 76.4158 29.2065 79.6806 31.0217C82.9455 32.8369 86.5038 35.0707 89.7597 37.2426C93.0158 39.4145 95.5263 41.3154 97.5332 42.8467C99.439 44.4776 100.38 45.5337 100.745 45.5305C100.795 45.5405 100.844 45.5413 100.922 45.5305C101 45.5197 101.131 45.4596 101.197 45.3336C101.264 45.2078 101.238 45.102 101.217 45.0384C101.196 44.9747 101.185 44.941 101.158 44.9005C101.05 44.7388 100.886 44.5874 100.646 44.369C100.167 43.9323 99.3739 43.2901 98.3626 42.5185C96.3399 40.9752 93.4007 38.8705 90.1338 36.6913C86.8668 34.5121 83.2834 32.2591 79.9955 30.4311C78.8267 29.998 73.095 26.9668 71.4901 27.0504H71.49L71.4905 27.0505Z" fill="white"/>
<path d="M68.7717 39.5781C74.8623 42.0641 83.5268 44.9843 89.3101 48.6194C92.4175 50.5927 95.124 52.5583 97.1452 54.171C98.1558 54.9773 98.9999 55.7021 99.6257 56.2774C100.252 56.8528 100.604 57.3751 100.807 57.5177C101.23 57.8161 101.555 57.6178 101.358 57.1436C101.21 56.7855 100.72 56.3748 100.078 55.7852C99.4372 55.1957 98.5789 54.4732 97.5586 53.6591C95.518 52.031 92.7937 50.0355 89.6644 48.0484C83.406 44.0743 75.9242 40.5803 68.772 39.5777L68.7717 39.5781Z" fill="white"/>
<path d="M64.0847 45.103C68.8314 45.1061 78.6366 49.4509 82.7696 51.6284C89.4708 55.2022 95.5645 59.7963 98.9323 63.0068C99.3057 63.3629 99.8513 63.0487 99.4245 62.5541C96.2963 58.9293 89.8355 54.6575 83.0847 51.0571C76.3339 47.4567 69.3437 45.0973 64.0845 45.1026L64.0847 45.103Z" fill="white"/>
<path d="M61.342 51.355C68.4781 52.3992 77.0321 55.2796 83.2644 58.4007C86.7423 60.1666 89.8436 62.058 92.2219 63.7357C94.5999 65.4134 96.3558 67.3023 96.7891 67.791C97.2224 68.2798 97.7385 68.3002 97.3403 67.4367C96.9421 66.5732 95.0053 64.8843 92.5959 63.1845C90.1866 61.4846 87.0651 59.5897 83.5601 57.81C76.5498 54.2506 68.5664 51.4504 61.3422 51.3549L61.342 51.355Z" fill="white"/>
<path d="M63.6973 56.6664C61.9246 56.5118 60.3289 56.8753 58.7031 57.0785C65.0438 56.4843 73.9103 59.3961 79.8208 62.1196C86.7832 65.3836 92.5643 69.8648 95.3339 72.7109C95.7674 73.1564 96.0738 72.5887 95.8457 72.2974C93.267 69.0052 87.1261 64.8048 80.0964 61.5094C74.8244 59.0378 69.0159 57.1307 63.6973 56.6666V56.6664Z" fill="white"/>
<path d="M59.1921 62.381C65.4318 62.8435 73.7859 64.3376 79.6379 67.0239C85.5234 69.7767 89.9897 73.346 92.2368 75.3712C92.5826 75.6828 93.1941 75.4621 92.7093 74.8987C90.6585 72.5159 85.8899 69.2199 79.9326 66.4337C73.9756 63.6474 66.7394 61.8629 59.1919 62.3813L59.1921 62.381Z" fill="white"/>
<path d="M64.7959 67.5738C63.4794 67.5293 62.8619 67.7756 61.5918 67.9128C65.8268 68.0994 72.5569 69.2257 76.2733 70.4874C81.0962 72.1606 85.0617 74.6811 87.3175 76.6493C87.753 77.0293 88.0777 76.5195 87.79 76.1965C85.6774 73.8258 81.3838 71.5554 76.4897 69.8574C72.8194 68.584 68.7454 67.7074 64.7959 67.5738H64.7959Z" fill="white"/>
<path d="M64.6142 73.7152C73.6673 74.3261 79.1416 75.9212 83.3378 79.6802C83.6522 79.9618 84.1486 79.5741 83.8103 79.2077C79.5041 74.5422 71.0257 73.2422 64.614 73.7153L64.6142 73.7152Z" fill="white"/>
<path d="M71.5854 79.1531C68.841 78.9323 66.5446 79.5321 64.0435 80.3649C71.3629 79.1983 74.4063 79.7577 79.9517 82.3619C80.5839 82.6588 80.5468 81.9594 80.2667 81.791C77.3208 80.0203 74.3293 79.3737 71.585 79.1531L71.5854 79.1531Z" fill="white"/>
<path d="M71.3246 84.2512C68.7298 84.4813 66.5265 85.3723 64.71 86.8497C71.9583 84.0559 73.9615 84.6118 79.5053 86.1834C80.2344 86.3901 80.0078 85.6878 79.7218 85.5731C76.4024 84.2422 73.9197 84.0211 71.3247 84.2511L71.3246 84.2512Z" fill="white"/>
<path d="M85.686 88.7405C81.8187 88.3224 77.4619 88.7914 73.638 89.4886C69.8143 90.1859 66.5257 91.6025 64.6694 93.1124C71.027 90.4274 72.1856 90.4331 73.7566 90.1383C77.5237 89.4513 81.2578 89.1835 85.6472 89.3902C86.0453 89.409 86.0249 88.7771 85.6866 88.7405H85.686Z" fill="white"/>
<path d="M87.9307 91.8706C83.7397 91.7123 79.411 92.7494 75.6661 93.8196C71.9216 94.8898 69.1422 96.3501 67.3093 97.8408C71.0179 96.0569 74.469 94.8494 75.8432 94.4495C79.5354 93.3942 83.2602 92.4807 87.9702 92.5399C88.3361 92.5446 88.5726 91.8948 87.9308 91.8706L87.9307 91.8706Z" fill="white"/>
<path d="M91.3532 94.4472C87.406 95.0299 83.2675 96.1957 79.6594 97.4197C76.0516 98.6438 73.4836 100.098 71.8083 101.838C76.0996 99.3746 78.4597 98.5109 79.8561 98.0301C83.4196 96.821 86.747 95.9797 91.4709 95.0968C92.0379 94.9908 91.5826 94.4132 91.3528 94.4472H91.3532Z" fill="white"/>
<path d="M93.3607 97.7352C85.445 98.9961 80.3153 102.411 77.0549 105.798C82.1078 101.991 85.6228 99.9451 93.4983 98.3846C93.9967 98.2858 93.8462 97.6575 93.3605 97.7349L93.3607 97.7352Z" fill="white"/>
<path d="M97.2179 100.628C89.2563 101.854 84.6649 106.694 82.7529 109.889C87.7902 104.857 91.7105 102.118 97.3554 101.278C97.9267 101.193 97.7809 100.541 97.2176 100.628L97.2179 100.628Z" fill="white"/>
<path d="M99.6206 103.149C98.3789 103.304 96.6892 104.184 95.0928 105.197C93.4963 106.21 92.2918 107.442 91.5735 109.03C93.4965 107.045 94.2663 106.508 95.4471 105.748C96.9798 104.775 98.5244 104.163 99.7781 103.799C100.366 103.628 99.9216 103.112 99.6206 103.149H99.6206Z" fill="white"/>
<path d="M160.686 58.8242C160.686 60.3691 159.434 61.6215 157.889 61.6215C156.344 61.6215 155.092 60.3691 155.092 58.8242C155.092 57.2794 156.344 56.0269 157.889 56.0269C159.434 56.0269 160.686 57.2793 160.686 58.8242Z" fill="white" stroke="white" stroke-width="0.660673"/>
<path d="M160.686 58.8242C160.686 60.3691 159.434 61.6215 157.889 61.6215C156.344 61.6215 155.092 60.3691 155.092 58.8242C155.092 57.2794 156.344 56.0269 157.889 56.0269C159.434 56.0269 160.686 57.2793 160.686 58.8242Z" fill="#37C871" stroke="white" stroke-width="0.660673"/>
</svg>

        </g>
         
        <g transform="translate(0, 600)">
          <svg width="256" height="256" viewBox="0 0 256 256" fill="none" xmlns="http://www.w3.org/2000/svg">
<rect width="256" height="256" rx="60" fill="#F4F2ED"/>
<path d="M53.3286 26.9992C52.9819 27.8175 52.6536 28.8761 52.3484 30.1524L52.1239 31.1502C52.0506 31.4961 51.9787 31.8553 51.9085 32.2275L51.7027 33.3822L51.5068 34.6123L51.3213 35.9157L51.1466 37.2901L50.9833 38.7336L50.8317 40.2441C50.8074 40.5013 50.7836 40.7612 50.7604 41.0237L50.6271 42.6306L50.5067 44.2992L50.3996 46.0273C50.3828 46.3202 50.3667 46.6154 50.3511 46.913L61.0553 52.0937C60.8933 45.8444 61.0945 39.9351 61.6575 34.5058L61.7679 33.5381L61.6916 34.4247L61.5964 35.8905L61.5616 36.5898L61.5029 38.1853L61.481 39.0826L61.4571 41.0791L61.4604 42.7553L61.4856 44.5869L61.5163 45.8953L61.5854 47.9902L61.6484 49.4758L61.7261 51.0333C61.7404 51.2989 61.7552 51.5676 61.7708 51.8392C63.7646 50.2134 66.1526 48.0792 68.6359 45.7462L70.3022 44.1648C70.5812 43.8974 70.8605 43.6285 71.1398 43.3584L72.8116 41.7269L74.4625 40.0875L76.0727 38.4606L77.6226 36.8666C75.91 33.3676 74.0631 30.7968 72.3451 28.9191L71.7775 28.3185C71.4029 27.9348 71.036 27.584 70.6798 27.2636L70.1539 26.8054L69.6463 26.3908C69.4803 26.2596 69.3178 26.1354 69.159 26.0178L68.6943 25.6846L68.2543 25.3891L67.6455 25.0126L67.1044 24.7101L66.5011 24.4109L66.0487 24.2163L65.2231 23.9179L64.6218 23.725L64.0347 23.5592L63.5878 23.4467L63.102 23.338C63.0181 23.3204 62.9328 23.3031 62.8461 23.2863L62.3115 23.1912L61.7503 23.1106C58.791 22.7397 54.9679 23.1286 53.3286 26.9992Z" fill="url(#paint0_linear_404_120)"/>
<path d="M63.8523 83.6904C63.3582 80.1284 62.9071 76.625 62.4991 73.1803C62.1679 70.3197 61.8968 67.5017 61.6748 64.7112L61.4844 62.2096C61.4811 62.1435 61.4793 62.0797 61.4799 62.0191C61.2459 58.6271 61.0765 55.323 61.0009 52.0854L50.3182 46.9341L50.289 47.5887L50.2173 48.9479C50.1108 51.5071 50.0317 54.2267 50.0094 57.0851C49.9833 60.3071 50.014 63.6679 50.0721 67.189C50.1476 70.4266 50.28 73.803 50.4554 77.238C50.5853 79.4433 50.7273 81.6651 50.8905 83.9157L51.0866 86.5186L65.3774 93.7585L64.8735 90.3858L63.8523 83.6904Z" fill="url(#paint1_linear_404_120)"/>
<path d="M84.5229 166.679L84.7442 167.441L86.1635 172.264C86.3674 172.949 86.5739 173.637 86.7841 174.329L87.4615 176.521L87.6931 177.31C87.734 177.439 87.778 177.567 87.8275 177.696L90.1297 185.074C92.1686 184.652 94.6539 185.413 97.2792 186.558L98.336 187.035C96.4034 184.71 93.7282 183.154 90.5315 182.794C99.2841 176.956 105.043 169.437 104.234 160.467C104.147 159.673 104.04 158.85 103.881 158.02C103.749 161.326 102.429 163.753 98.6035 166.347L98.1324 166.659C102.089 159.696 103.178 154.972 102.71 148.864C102.594 147.416 102.414 145.879 102.147 144.225C100.882 153.319 95.9983 159.204 88.8558 162.686L84.5229 166.679Z" fill="url(#paint2_linear_404_120)"/>
<path d="M79.4023 156.008L78.4934 152.6L76.665 145.701C75.7976 142.368 74.9595 139.014 74.1291 135.608C73.2988 132.203 72.4978 128.776 71.6968 125.349C70.8821 121.842 70.1182 118.342 69.3837 114.822L68.6584 111.341L67.266 104.376C67.0172 103.115 66.79 101.884 66.5705 100.601C66.1708 98.4587 65.8004 96.2945 65.43 94.1304L65.3536 93.7805L51.1431 86.5269L51.1896 86.9772C51.195 87.0551 51.1974 87.1336 51.1942 87.2111C51.4809 90.4291 51.7598 93.6979 52.1404 96.9823C52.5132 100.318 52.9369 103.661 53.4328 107.041C53.8543 109.889 54.3051 112.716 54.7774 115.572L55.087 117.285C55.7414 120.819 56.4408 124.231 57.2006 127.417C58.0506 131.034 58.961 134.426 59.8812 137.585C60.4998 139.657 61.1047 141.649 61.7253 143.539L62.2759 145.132L63.4144 148.299C64.7727 151.994 66.2776 155.581 67.8998 159.082L82.2629 166.359C81.4974 163.718 80.7905 161.034 80.0113 158.312L79.6133 156.787L79.4023 156.008Z" fill="url(#paint3_linear_404_120)"/>
<path d="M68.1068 159.56C69.8378 163.263 71.726 166.85 73.8105 170.294L74.9664 172.163C73.6055 171.615 71.8842 171.343 70.2118 171.221L69.3816 171.172C69.2445 171.166 69.1083 171.161 68.9731 171.156L68.1763 171.139L67.0533 171.143L66.0508 171.172L65.2073 171.216L64.0264 171.313C64.0165 171.314 64.0122 171.315 64.0134 171.315C71.2759 173.834 77.6449 176.919 81.6625 181.594C80.0659 183.352 77.0771 184.689 73.3198 185.777C76.1171 186.08 78.2481 185.957 79.7847 185.706L80.4071 185.592C80.5049 185.572 80.5996 185.551 80.6914 185.531L81.207 185.403L81.6529 185.272L82.194 185.084L82.4713 184.97C80.1638 186.894 78.7199 190.172 77.5196 193.846L77.1051 195.158C77.0374 195.379 76.9703 195.6 76.9036 195.823C79.9594 190.828 82.9904 187.521 85.9421 186.257C89.2386 197.188 93.051 208.821 97.235 220.961L99.1919 226.599C99.8527 228.49 100.522 230.392 101.198 232.305C102.172 231.05 102.281 229.661 101.873 228.246L100.535 224.467L99.0111 220.05L96.6501 213.045L94.7154 207.171L92.5775 200.544L90.5362 194.078L88.6625 188.019L87.2842 183.481L86.1624 179.735C86.0123 179.243 85.8752 178.743 85.7275 178.236L85.3049 176.845L84.0935 172.66L82.8615 168.354L82.3075 166.369L82.2859 166.34L67.9229 159.063C67.9555 159.189 67.9916 159.293 68.0352 159.398L68.1068 159.56Z" fill="url(#paint4_linear_404_120)"/>
<path d="M67.0471 94.0647L67.3018 95.4566C67.486 96.4041 67.6571 97.3611 67.8389 98.3237L69.3927 106.296L69.9635 109.072L70.7948 112.995C70.9366 113.658 71.0797 114.326 71.2237 114.998C71.6527 116.984 72.1049 119.001 72.5786 121.062L73.5543 125.242L74.5254 129.32C74.6915 130.009 74.8597 130.702 75.0298 131.399L76.0727 135.619L77.1155 139.72C77.6448 141.793 78.1895 143.899 78.7651 146.048C79.1851 147.634 79.6213 149.243 80.0672 150.872L81.5611 156.311L82.6898 160.308L83.8553 164.391C84.0528 165.078 84.252 165.767 84.4528 166.459C84.4666 166.539 84.4803 166.619 84.5233 166.678L88.8562 162.686L88.7512 162.729L88.5199 162.842C93.6619 157.986 98.0687 148.255 99.076 139.486C99.5397 135.447 99.4969 131.148 98.9417 126.458C98.5415 122.962 97.8304 119.289 96.8532 115.314C96.0013 111.88 94.948 108.232 93.664 104.393C92.8689 106.014 91.7395 107.609 90.3559 109.166L89.6055 109.988L89.3487 110.255L88.8042 110.801C92.5967 104.905 93.0477 98.5745 91.9229 92.0019C91.2335 93.9514 89.8798 96.8396 87.6344 99.4349C87.3472 99.7811 87.0091 100.119 86.671 100.458C86.6123 100.501 86.5633 100.557 86.5023 100.615L86.3993 100.702C87.6576 98.6059 88.5874 96.6153 89.1829 94.5993C89.2779 94.3191 89.3504 94.0353 89.4153 93.7505L89.5089 93.3225C89.6611 92.6695 89.7625 92.0086 89.8639 91.3478L90.0081 90.0691C90.065 89.3168 90.0812 88.5437 90.0443 87.7588L89.9454 86.3141C89.9357 86.2076 89.9231 86.1016 89.9048 85.9947L89.7538 85.0696C89.7284 84.9212 89.7016 84.7754 89.6716 84.6321C89.3777 82.9145 89.0551 81.3837 88.7223 80.026L88.4105 78.8073L88.1286 77.7779L87.7622 76.5602L87.286 75.1335C87.2356 74.99 87.1852 74.8522 87.1339 74.7208L86.8463 74.0012C86.754 73.7798 86.6656 73.5774 86.5818 73.395L86.3452 72.9087C86.2997 73.0925 86.2411 73.2858 86.1631 73.4801L86.0308 73.771C85.1362 75.8711 83.0552 78.7518 81.1576 80.7761C81.1283 80.7976 81.0989 80.8191 81.0911 80.87L80.6997 81.2609C80.633 81.3316 80.5667 81.4052 80.5029 81.4822L80.5771 81.3375L66.9258 93.8379C67.0412 93.9337 67.0549 94.0138 67.0471 94.0647Z" fill="url(#paint5_linear_404_120)"/>
<path d="M61.7725 51.8426C61.8276 52.8397 61.8936 53.8789 61.9697 54.9592L62.1351 57.1742C62.1649 57.5523 62.1956 57.935 62.2275 58.3221L62.4305 60.6976C62.4664 61.1023 62.5032 61.5114 62.5409 61.9248L62.5729 62.319C62.5806 62.3818 62.5913 62.4441 62.6076 62.5074C62.7232 63.7251 62.8517 64.9777 62.9939 66.2695L63.2967 68.9065C63.4039 69.8038 63.5173 70.7196 63.6372 71.6554L64.2053 75.9446C64.4709 77.8918 64.7584 79.9092 65.08 82.0132L65.3278 83.6076C65.5728 85.2322 65.8447 86.8934 66.1326 88.5994L67.0328 93.8595L80.6841 81.359C83.5307 76.2023 84.153 72.9937 84.1143 69.0073C84.1008 68.2052 84.0631 67.3702 84.0102 66.5145L83.9527 65.6524C83.7342 62.1587 83.3144 58.4521 82.7186 54.8745C82.1581 51.4064 81.4725 48.0751 80.6873 45.223C80.19 43.3776 79.6615 41.7355 79.1233 40.3261C78.634 39.1063 78.1291 37.9882 77.6165 36.9209L76.0687 38.5011C75.8051 38.768 75.539 39.0364 75.2708 39.3059L73.6393 40.9318L71.9766 42.5623L70.3026 44.1766C70.0237 44.4432 69.7452 44.7083 69.4674 44.9713L67.8132 46.5227C65.6285 48.5506 63.5448 50.3975 61.7725 51.8426Z" fill="url(#paint6_linear_404_120)"/>
<path d="M193.196 29.6763C192.759 29.8566 192.282 30.0831 191.769 30.3541L190.972 30.7939C190.423 31.1091 189.838 31.4681 189.22 31.8695L188.268 32.5031L187.268 33.1991L186.221 33.9563L185.129 34.7736C184.943 34.9148 184.756 35.0584 184.567 35.2044L183.411 36.1098L182.214 37.0725L180.977 38.0914L179.704 39.1653L178.395 40.2932L177.052 41.4739L175.676 42.7063C175.445 42.9159 175.211 43.1277 174.977 43.3415L179.478 56.0168C184.347 50.8212 189.238 46.1958 194.037 42.2545L195.725 40.8847L195.847 40.7913L194.686 41.736L193.548 42.7204L192.313 43.8367L191.142 44.934L190.158 45.8808L189.452 46.5729L187.922 48.107L186.671 49.3926L184.868 51.2925L183.909 52.3242L182.912 53.4117L181.347 55.1495L180.256 56.3804C181.376 56.4868 182.603 56.5789 183.91 56.6572L185.926 56.7646L188.041 56.852L190.234 56.9199L192.482 56.9688L194.766 56.9993C195.148 57.0028 195.531 57.0057 195.914 57.0077L198.211 57.0115C198.593 57.0107 198.975 57.0091 199.355 57.0069L201.617 56.9851C201.991 56.9801 202.363 56.9744 202.732 56.968L204.913 56.9218C206.704 51.584 207.114 47.2918 206.975 44.0869L206.927 43.2755L206.857 42.5136C206.844 42.3907 206.83 42.2699 206.815 42.1512L206.719 41.4638L206.61 40.8264C206.591 40.7243 206.571 40.6243 206.551 40.5264L206.428 39.9641L206.3 39.452L206.169 38.9905L206.04 38.5796L205.799 37.9103L205.604 37.4454L205.139 36.4866L204.868 35.9748L204.641 35.5727L204.378 35.131L204.08 34.6576L203.747 34.1604L203.379 33.6471C201.325 30.8814 197.818 27.7691 193.196 29.6763Z" fill="url(#paint7_linear_404_120)"/>
<path d="M156.631 83.6828C159.063 80.4228 161.484 77.2442 163.892 74.1469C166.4 70.9395 168.93 67.8602 171.49 64.8683C171.642 64.6827 171.794 64.4971 171.94 64.3522C174.446 61.4357 176.935 58.6413 179.446 55.9749L174.939 43.3403L174.396 43.8441L173.258 44.8813C171.139 46.8569 168.915 48.9834 166.626 51.2667C165.335 52.5532 164.029 53.8789 162.701 55.2431L160.015 58.0226C159.562 58.4943 159.107 58.9702 158.648 59.4503C156.137 62.1167 153.561 64.9399 150.973 67.8445C149.325 69.723 147.674 71.6244 146.018 73.5659L144.107 75.8171L149.859 92.9995L152.133 89.8841L156.631 83.6828Z" fill="url(#paint8_linear_404_120)"/>
<path d="M107.328 166.912L106.473 168.491L104.212 172.712C103.832 173.425 103.451 174.143 103.07 174.867L101.874 177.17C101.645 177.594 101.423 177.977 101.235 178.407L99.9768 180.835L97.2266 186.175C99.4665 187.626 100.961 190.756 102.274 194.274C102.566 190.867 101.648 187.489 99.3614 184.659C111.045 186.914 121.656 185.436 128.131 177.572C128.692 176.865 129.259 176.117 129.792 175.322C127.05 177.886 124.05 178.789 118.883 177.824L118.299 177.71C127.017 175.247 131.647 172.31 136.123 167.021C137.181 165.763 138.256 164.383 139.356 162.839C131.112 169.155 122.505 170.012 113.988 167.141L107.328 166.912Z" fill="url(#paint9_linear_404_120)"/>
<path d="M111.235 155.045L113.66 150.785L117.669 143.779C119.619 140.406 121.609 137.04 123.647 133.639C125.684 130.238 127.762 126.843 129.84 123.447C131.971 119.977 134.136 116.553 136.342 113.135C138.501 109.752 140.742 106.38 142.936 103.044C143.738 101.831 144.533 100.659 145.376 99.4523C146.756 97.4099 148.177 95.3734 149.599 93.337L149.815 92.9946L144.139 75.8647L143.818 76.2643C143.761 76.3313 143.7 76.3963 143.636 76.4562C141.31 79.2745 138.938 82.1276 136.635 85.074C134.285 88.0551 131.97 91.0829 129.683 94.198C127.759 96.8259 125.876 99.4598 123.987 102.134L122.876 103.759C120.594 107.124 118.447 110.426 116.527 113.595C114.338 117.182 112.376 120.635 110.607 123.91C109.458 126.069 108.363 128.153 107.36 130.168C106.528 131.875 105.73 133.629 104.938 135.342C103.096 139.396 101.458 143.479 99.9819 147.586L105.763 164.856L106.888 162.806L109.188 158.682C109.574 157.989 109.959 157.292 110.343 156.59L111.235 155.045Z" fill="url(#paint10_linear_404_120)"/>
<path d="M99.7812 148.136C98.2326 152.492 96.9021 156.881 95.8442 161.309L95.2894 163.732C94.7688 162.532 93.9322 161.292 92.9892 160.122L92.4123 159.429C92.3146 159.315 92.2162 159.202 92.1174 159.091L91.521 158.433L90.9242 157.805L90.337 157.213L89.4964 156.403L88.734 155.701L87.8979 154.967L87.146 154.348C90.9907 162.146 93.667 169.689 93.1869 176.644C90.5047 176.791 87.0367 175.493 83.1472 173.384C84.8214 175.437 86.3588 176.886 87.6554 177.901L88.2364 178.34C88.3303 178.408 88.4226 178.474 88.5134 178.537L89.0389 178.891L89.5245 179.192L89.9679 179.445L90.367 179.654L90.7195 179.822L91.0229 179.952C91.0693 179.971 91.1136 179.989 91.1556 180.005C87.8964 179.731 84.2844 181.103 80.5532 182.993L79.3053 183.641L78.0506 184.318C84.4788 182.725 89.5465 182.471 92.9271 183.799C91.2668 186.942 89.5956 190.16 87.9144 193.445L85.3852 198.425C81.5805 205.968 77.7271 213.842 73.8347 221.983L71.2341 227.449C70.3654 229.284 69.4948 231.131 68.6226 232.99C70.4035 232.752 71.5941 231.721 72.3908 230.258L75.3357 224.014L78.0459 218.4L81.5092 211.35L84.5682 205.221L87.599 199.232L90.4783 193.615L94.4742 185.933L97.3114 180.556L98.2865 178.723L99.1271 177.171L99.8918 175.716L101.057 173.564L103.447 169.175C103.852 168.434 104.26 167.689 104.672 166.938L105.802 164.901L105.808 164.86L100.028 147.59C99.9534 147.718 99.9 147.83 99.8517 147.949L99.7812 148.136Z" fill="url(#paint11_linear_404_120)"/>
<path d="M150.959 94.578L150.059 95.9009C149.454 96.81 148.831 97.7164 148.213 98.6357L145.247 103.108L143.13 106.288L142.593 107.111C141.789 108.344 140.981 109.598 140.166 110.871L137.69 114.748C136.046 117.334 134.392 119.998 132.701 122.758L131.427 124.846C129.402 128.166 127.312 131.643 125.21 135.201L122.79 139.331C121.57 141.42 120.335 143.548 119.091 145.736C118.353 147.024 117.612 148.332 116.866 149.657L113.187 156.219L112.06 158.263L109.771 162.429C109.002 163.833 108.228 165.253 107.453 166.686C107.4 166.761 107.347 166.836 107.335 166.918L113.995 167.147C113.879 167.088 113.757 167.07 113.6 167.006C121.598 167.181 132.877 162.85 140.655 156.591C144.237 153.707 147.619 150.212 150.898 145.996C153.353 142.864 155.699 139.342 158.07 135.366C160.114 131.924 162.164 128.151 164.181 124.04C162.253 124.713 160.075 125.1 157.725 125.254L156.468 125.319C156.189 125.334 155.912 125.33 155.623 125.331L155.177 125.338C162.914 123.605 168.307 118.867 172.624 112.682C170.52 113.703 167.135 114.953 163.266 115.258C162.759 115.309 162.218 115.312 161.677 115.316C161.596 115.304 161.512 115.31 161.417 115.309L161.264 115.297C163.943 114.609 166.273 113.746 168.354 112.596C168.653 112.446 168.937 112.275 169.216 112.097L169.631 111.827C170.273 111.422 170.879 110.971 171.486 110.519L172.618 109.604C173.476 108.857 174.305 108.023 175.065 107.095L175.551 106.532C175.628 106.438 175.702 106.343 175.772 106.242L176.385 105.378C176.483 105.238 176.577 105.1 176.667 104.96C177.818 103.31 178.791 101.793 179.613 100.413L179.956 99.8303C180.401 99.0642 180.793 98.3734 181.139 97.7174L181.543 96.9452L182.156 95.7032C182.282 95.4456 182.398 95.1998 182.499 94.9652L182.678 94.5482L182.982 93.7941C183.072 93.5613 183.149 93.3475 183.215 93.1542L183.304 92.8799C183.121 92.9917 182.92 93.1008 182.703 93.1952L182.365 93.3242C179.976 94.3041 176.012 94.9697 172.877 95.0916C172.836 95.0856 172.795 95.0796 172.748 95.1144L172.123 95.118C172.013 95.1219 171.901 95.1286 171.789 95.1398L171.963 95.0823L151.042 94.2991C151.059 94.4678 151.006 94.5433 150.959 94.578Z" fill="url(#paint12_linear_404_120)"/>
<path d="M180.257 56.3804C179.51 57.2268 178.737 58.1159 177.94 59.046L176.313 60.9605L174.622 62.9818L172.578 65.45C172.534 65.5067 172.494 65.5653 172.456 65.6292C171.29 67.0587 170.094 68.5564 168.86 70.1319L166.98 72.5544C166.661 72.9683 166.34 73.3873 166.017 73.8116L163.316 77.3831L161.55 79.749C160.656 80.9547 159.745 82.1959 158.816 83.479L157.882 84.7764C156.944 86.0643 156.002 87.3895 155.044 88.7507L153.105 91.5206L151.109 94.384L172.03 95.1672C178.419 93.2776 181.469 91.1891 184.605 87.9492C185.232 87.2928 185.865 86.5906 186.502 85.8598L187.141 85.1201C189.741 82.1341 192.348 78.8165 194.711 75.4632C197.015 72.2259 199.11 68.9995 200.744 66.0797C201.81 64.1989 202.689 62.4571 203.375 60.8949C203.951 59.5242 204.432 58.223 204.868 56.9565L202.698 56.9944L200.466 57.0176L198.194 57.0255L195.903 57.0174C195.52 57.0146 195.138 57.0112 194.757 57.0071L192.477 56.9737L190.231 56.9227C189.861 56.9127 189.493 56.902 189.128 56.8904L186.973 56.8117C186.62 56.797 186.272 56.7815 185.927 56.7652L183.911 56.6574C182.604 56.5789 181.377 56.4868 180.257 56.3804Z" fill="url(#paint13_linear_404_120)"/>
<defs>
<linearGradient id="paint0_linear_404_120" x1="55.9915" y1="41.4914" x2="90.6865" y2="30.1775" gradientUnits="userSpaceOnUse">
<stop stop-color="#F69923"/>
<stop offset="0.3123" stop-color="#F79A23"/>
<stop offset="0.8383" stop-color="#E97826"/>
</linearGradient>
<linearGradient id="paint1_linear_404_120" x1="53.2537" y1="231.877" x2="95.8234" y2="62.8714" gradientUnits="userSpaceOnUse">
<stop offset="0.3233" stop-color="#9E2064"/>
<stop offset="0.6302" stop-color="#C92037"/>
<stop offset="0.7514" stop-color="#CD2335"/>
<stop offset="1" stop-color="#E97826"/>
</linearGradient>
<linearGradient id="paint2_linear_404_120" x1="91.4313" y1="226.554" x2="119.396" y2="90.357" gradientUnits="userSpaceOnUse">
<stop stop-color="#282662"/>
<stop offset="0.0954839" stop-color="#662E8D"/>
<stop offset="0.7882" stop-color="#9F2064"/>
<stop offset="0.9487" stop-color="#CD2032"/>
</linearGradient>
<linearGradient id="paint3_linear_404_120" x1="60.5529" y1="222.638" x2="122.45" y2="72.1246" gradientUnits="userSpaceOnUse">
<stop offset="0.3233" stop-color="#9E2064"/>
<stop offset="0.6302" stop-color="#C92037"/>
<stop offset="0.7514" stop-color="#CD2335"/>
<stop offset="1" stop-color="#E97826"/>
</linearGradient>
<linearGradient id="paint4_linear_404_120" x1="76.0204" y1="215.683" x2="125.862" y2="153.584" gradientUnits="userSpaceOnUse">
<stop stop-color="#282662"/>
<stop offset="0.0954839" stop-color="#662E8D"/>
<stop offset="0.7882" stop-color="#9F2064"/>
<stop offset="0.9487" stop-color="#CD2032"/>
</linearGradient>
<linearGradient id="paint5_linear_404_120" x1="79.8609" y1="248.894" x2="125.369" y2="33.4761" gradientUnits="userSpaceOnUse">
<stop offset="0.3233" stop-color="#9E2064"/>
<stop offset="0.6302" stop-color="#C92037"/>
<stop offset="0.7514" stop-color="#CD2335"/>
<stop offset="1" stop-color="#E97826"/>
</linearGradient>
<linearGradient id="paint6_linear_404_120" x1="66.7557" y1="302.142" x2="109.583" y2="52.8396" gradientUnits="userSpaceOnUse">
<stop offset="0.3233" stop-color="#9E2064"/>
<stop offset="0.6302" stop-color="#C92037"/>
<stop offset="0.7514" stop-color="#CD2335"/>
<stop offset="1" stop-color="#E97826"/>
</linearGradient>
<linearGradient id="paint7_linear_404_120" x1="180.304" y1="45.9286" x2="225.334" y2="33.9264" gradientUnits="userSpaceOnUse">
<stop stop-color="#F69923"/>
<stop offset="0.3123" stop-color="#F79A23"/>
<stop offset="0.8383" stop-color="#E97826"/>
</linearGradient>
<linearGradient id="paint8_linear_404_120" x1="113.92" y1="239.48" x2="205.543" y2="71.6141" gradientUnits="userSpaceOnUse">
<stop offset="0.3233" stop-color="#9E2064"/>
<stop offset="0.6302" stop-color="#C92037"/>
<stop offset="0.7514" stop-color="#CD2335"/>
<stop offset="1" stop-color="#E97826"/>
</linearGradient>
<linearGradient id="paint9_linear_404_120" x1="88.5401" y1="203.463" x2="129.915" y2="133.972" gradientUnits="userSpaceOnUse">
<stop stop-color="#282662"/>
<stop offset="0.0954839" stop-color="#662E8D"/>
<stop offset="0.7882" stop-color="#9F2064"/>
<stop offset="0.9487" stop-color="#CD2032"/>
</linearGradient>
<linearGradient id="paint10_linear_404_120" x1="104.576" y1="227.592" x2="197.49" y2="70.3108" gradientUnits="userSpaceOnUse">
<stop offset="0.3233" stop-color="#9E2064"/>
<stop offset="0.6302" stop-color="#C92037"/>
<stop offset="0.7514" stop-color="#CD2335"/>
<stop offset="1" stop-color="#E97826"/>
</linearGradient>
<linearGradient id="paint11_linear_404_120" x1="82.3985" y1="213.608" x2="133.362" y2="137.786" gradientUnits="userSpaceOnUse">
<stop stop-color="#282662"/>
<stop offset="0.0954839" stop-color="#662E8D"/>
<stop offset="0.7882" stop-color="#9F2064"/>
<stop offset="0.9487" stop-color="#CD2032"/>
</linearGradient>
<linearGradient id="paint12_linear_404_120" x1="80.9401" y1="227.736" x2="188.052" y2="56.1049" gradientUnits="userSpaceOnUse">
<stop offset="0.3233" stop-color="#9E2064"/>
<stop offset="0.6302" stop-color="#C92037"/>
<stop offset="0.7514" stop-color="#CD2335"/>
<stop offset="1" stop-color="#E97826"/>
</linearGradient>
<linearGradient id="paint13_linear_404_120" x1="81.2953" y1="159.727" x2="149.893" y2="46.6716" gradientUnits="userSpaceOnUse">
<stop offset="0.3233" stop-color="#9E2064"/>
<stop offset="0.6302" stop-color="#C92037"/>
<stop offset="0.7514" stop-color="#CD2335"/>
<stop offset="1" stop-color="#E97826"/>
</linearGradient>
</defs>
</svg>

        </g>
         
        <g transform="translate(300, 600)">
          <svg xmlns="http://www.w3.org/2000/svg" width="256" height="256" fill="none" viewBox="0 0 256 256"><rect width="256" height="256" fill="#F4F2ED" rx="60"/><path stroke="#000" stroke-width="10" d="M217 69H39C33.4772 69 29 73.4772 29 79V177C29 182.523 33.4772 187 39 187H217C222.523 187 227 182.523 227 177V79C227 73.4772 222.523 69 217 69Z"/><path fill="#000" d="M54 162V94H74L94 119L114 94H134V162H114V123L94 148L74 123V162H54ZM179 162L149 129H169V94H189V129H209L179 162Z"/></svg>
        </g>
         
        <g transform="translate(600, 600)">
          <svg width="256" height="256" viewBox="0 0 256 256" fill="none" xmlns="http://www.w3.org/2000/svg">
<g clip-path="url(#clip0_33_893)">
<path d="M196 0H60C26.8629 0 0 26.8629 0 60V196C0 229.137 26.8629 256 60 256H196C229.137 256 256 229.137 256 196V60C256 26.8629 229.137 0 196 0Z" fill="#F4F2ED"/>
<g clip-path="url(#clip1_33_893)">
<mask id="mask0_33_893" style="mask-type:luminance" maskUnits="userSpaceOnUse" x="28" y="28" width="201" height="201">
<path d="M28.0781 28.0781H228.078V228.078H28.0781V28.0781Z" fill="white"/>
</mask>
<g mask="url(#mask0_33_893)">
<path d="M177.336 213.781C176.125 222.922 167.18 230.031 158.313 227.57C145.656 224.094 131.008 218.664 117.844 217.648L97.6486 216.086C94.3916 215.859 91.3323 214.441 89.0548 212.102L54.2892 176.281C52.4243 174.373 51.1772 171.948 50.7104 169.321C50.2436 166.695 50.5787 163.988 51.672 161.555C51.672 161.555 73.1564 114.289 73.9767 111.828C74.7579 109.367 77.7267 87.9219 79.4454 76.4375C79.9142 73.3516 81.3986 70.5781 83.7423 68.5078L124.875 31.4766C126.231 30.2583 127.823 29.3314 129.552 28.7533C131.281 28.1752 133.111 27.9581 134.927 28.1156C136.743 28.273 138.508 28.8016 140.111 29.6687C141.715 30.5357 143.124 31.7228 144.25 33.1563L178.781 77.0625C180.702 79.5758 181.745 82.6496 181.75 85.8125C181.75 94.1328 182.453 111.203 187.063 122.219C191.555 132.883 199.758 144.484 204.055 150.148C204.873 151.208 205.357 152.486 205.448 153.821C205.538 155.157 205.23 156.489 204.563 157.648C198.988 167.003 193.152 176.199 187.063 185.227C181.203 193.938 178.508 204.719 177.297 213.781H177.336Z" fill="#6C31E3"/>
<path d="M92.8047 214.836C108.977 182.023 108.508 158.508 101.633 141.789C95.3047 126.32 83.5469 116.594 74.2891 110.539C74.0547 111.438 73.7813 112.258 73.4297 113.078L51.6719 161.594C50.5736 164.024 50.2322 166.728 50.692 169.354C51.1518 171.981 52.3916 174.408 54.25 176.32L89.0547 212.141C90.1345 213.265 91.4039 214.191 92.8047 214.875V214.836Z" fill="url(#paint0_radial_33_893)"/>
<path d="M136.75 148.234C141.125 148.703 145.422 149.641 149.563 151.203C162.844 156.164 174.953 167.297 184.914 188.82C185.617 187.609 186.32 186.398 187.102 185.227C193.184 176.194 199.02 166.998 204.602 157.648C205.285 156.493 205.602 155.159 205.511 153.82C205.42 152.481 204.926 151.201 204.094 150.148C199.797 144.445 191.594 132.883 187.102 122.219C182.492 111.203 181.828 94.0938 181.789 85.8125C181.789 82.6484 180.774 79.5625 178.82 77.0625L144.25 33.1562C144.062 32.9284 143.867 32.707 143.664 32.4922C145.939 39.3036 146.21 46.6249 144.445 53.5859C142.772 59.2064 140.465 64.6187 137.57 69.7188L134.758 75.2656C130.249 83.8507 127.663 93.3147 127.18 103C126.711 114.484 129.055 128.937 136.75 148.234Z" fill="url(#paint1_radial_33_893)"/>
<path d="M136.75 148.234C129.055 128.937 126.672 114.484 127.18 102.961C127.663 93.2757 130.249 83.8117 134.758 75.2266C135.656 73.3516 136.633 71.5156 137.57 69.7188C140.344 64.2891 143.039 59.1719 144.445 53.5469C146.21 46.5859 145.939 39.2645 143.664 32.4531C141.294 29.8415 137.986 28.2762 134.463 28.1004C130.941 27.9247 127.493 29.1529 124.875 31.5156L83.7031 68.5469C81.4068 70.616 79.9015 73.4194 79.4453 76.4766L74.4453 109.68L74.25 110.578C83.5469 116.633 95.3438 126.359 101.633 141.828C102.933 144.961 103.952 148.203 104.68 151.516C115.617 148.859 126.438 147.219 136.75 148.273V148.234Z" fill="url(#paint2_radial_33_893)"/>
<path d="M158.313 227.609C167.18 230.031 176.125 222.922 177.336 213.781C178.344 205.074 180.911 196.619 184.914 188.82C174.914 167.336 162.844 156.164 149.602 151.203C135.539 145.969 120.227 147.688 104.68 151.477C108.156 167.258 106.086 187.922 92.8047 214.836C94.3672 215.539 95.9688 216.008 97.6875 216.125C97.6875 216.125 107.219 216.906 118.625 217.727C129.953 218.508 146.906 224.406 158.313 227.57V227.609Z" fill="url(#paint3_radial_33_893)"/>
<path fill-rule="evenodd" clip-rule="evenodd" d="M127.258 102.219C126.75 113.625 128.195 126.75 135.891 146.008L133.469 145.812C126.555 125.695 125.07 115.344 125.578 103.781C126.172 93.9407 128.89 84.3456 133.547 75.6562C134.484 73.7422 136.672 70.1484 137.648 68.3125C140.422 62.9609 142.297 60.1094 143.898 55.1875C146.125 48.3516 145.656 45.0703 145.383 41.8672C147.18 53.5469 140.422 63.7422 135.344 74.0547C130.674 82.7458 127.917 92.3353 127.258 102.18V102.219Z" fill="url(#paint4_radial_33_893)"/>
<path fill-rule="evenodd" clip-rule="evenodd" d="M103.898 142.609C104.836 144.719 105.695 146.437 106.242 149.055L104.172 149.484C103.352 146.438 102.687 144.25 101.516 141.672C94.5625 125.266 83.4297 116.828 74.2891 110.617C85.3047 116.555 96.6328 125.852 103.859 142.609H103.898Z" fill="url(#paint5_radial_33_893)"/>
<path fill-rule="evenodd" clip-rule="evenodd" d="M106.359 151.086C110.188 169.055 105.891 191.789 93.2344 213.937C103.82 191.984 108.938 170.93 104.68 151.437L106.359 151.086Z" fill="url(#paint6_radial_33_893)"/>
<path fill-rule="evenodd" clip-rule="evenodd" d="M150.07 149.484C170.812 157.258 178.82 174.328 184.797 188.547C177.375 173.664 167.141 157.18 149.328 151.047C135.734 146.437 124.289 146.984 104.68 151.437L104.25 149.484C125.031 144.758 135.891 144.211 150.07 149.484Z" fill="url(#paint7_radial_33_893)"/>
</g>
</g>
</g>
<defs>
<radialGradient id="paint0_radial_33_893" cx="0" cy="0" r="1" gradientUnits="userSpaceOnUse" gradientTransform="translate(91.0469 211.594) rotate(-104.693) scale(90.8621 60.5417)">
<stop stop-color="white" stop-opacity="0.4"/>
<stop offset="1" stop-opacity="0.1"/>
</radialGradient>
<radialGradient id="paint1_radial_33_893" cx="0" cy="0" r="1" gradientUnits="userSpaceOnUse" gradientTransform="translate(168.625 174.172) rotate(-82.4846) scale(149.33 110.326)">
<stop stop-color="white" stop-opacity="0.6"/>
<stop offset="1" stop-color="white" stop-opacity="0.1"/>
</radialGradient>
<radialGradient id="paint2_radial_33_893" cx="0" cy="0" r="1" gradientUnits="userSpaceOnUse" gradientTransform="translate(96.5156 147.922) rotate(-77.7949) scale(127.491 87.1129)">
<stop stop-color="white" stop-opacity="0.8"/>
<stop offset="1" stop-color="white" stop-opacity="0.4"/>
</radialGradient>
<radialGradient id="paint3_radial_33_893" cx="0" cy="0" r="1" gradientUnits="userSpaceOnUse" gradientTransform="translate(158.977 228.078) rotate(-120.496) scale(73.8942 84.9458)">
<stop stop-color="white" stop-opacity="0.3"/>
<stop offset="1" stop-opacity="0.3"/>
</radialGradient>
<radialGradient id="paint4_radial_33_893" cx="0" cy="0" r="1" gradientUnits="userSpaceOnUse" gradientTransform="translate(149.094 78.0781) rotate(102.236) scale(66.3511 44.7431)">
<stop stop-color="white" stop-opacity="0"/>
<stop offset="1" stop-color="white" stop-opacity="0.2"/>
</radialGradient>
<radialGradient id="paint5_radial_33_893" cx="0" cy="0" r="1" gradientUnits="userSpaceOnUse" gradientTransform="translate(71.3594 114.016) rotate(45.3237) scale(48.8906 104.136)">
<stop stop-color="white" stop-opacity="0.2"/>
<stop offset="1" stop-color="white" stop-opacity="0.4"/>
</radialGradient>
<radialGradient id="paint6_radial_33_893" cx="0" cy="0" r="1" gradientUnits="userSpaceOnUse" gradientTransform="translate(111.984 138.937) rotate(86.0397) scale(50.9028 108.095)">
<stop stop-color="white" stop-opacity="0.2"/>
<stop offset="1" stop-color="white" stop-opacity="0.3"/>
</radialGradient>
<radialGradient id="paint7_radial_33_893" cx="0" cy="0" r="1" gradientUnits="userSpaceOnUse" gradientTransform="translate(184.25 183.938) rotate(-152.289) scale(87.3639 274.845)">
<stop stop-color="white" stop-opacity="0.2"/>
<stop offset="0.5" stop-color="white" stop-opacity="0.2"/>
<stop offset="1" stop-color="white" stop-opacity="0.3"/>
</radialGradient>
<clipPath id="clip0_33_893">
<rect width="256" height="256" fill="white"/>
</clipPath>
<clipPath id="clip1_33_893">
<rect width="200" height="200" fill="white" transform="translate(28 28)"/>
</clipPath>
</defs>
</svg>

        </g>
         
        <g transform="translate(900, 600)">
          <svg width="256" height="256" viewBox="0 0 256 256" fill="none" xmlns="http://www.w3.org/2000/svg">
<g clip-path="url(#clip0_33_498)">
<path d="M196 0H60C26.8629 0 0 26.8629 0 60V196C0 229.137 26.8629 256 60 256H196C229.137 256 256 229.137 256 196V60C256 26.8629 229.137 0 196 0Z" fill="#F4F2ED"/>
<path d="M178.268 69.9061L183.1 43.8441C175.763 39.0054 167.789 35.1502 159.418 32.3768L141.581 52.1446C132.892 50.571 123.983 50.512 115.274 51.9873L97.656 31.9834C89.2448 34.6388 81.2313 38.3956 73.8143 43.1557L78.3082 69.2767C71.6469 75.0202 66.0394 81.8652 61.7642 89.5363L34.9994 90.6771C31.8576 98.8399 29.8294 107.376 28.9744 116.07L52.4383 128.875C52.8161 137.608 54.7449 146.204 58.1253 154.288L42.3369 175.708C46.8308 183.222 52.319 190.126 58.6423 196.204L83.3987 186.054C90.5373 191.208 98.5508 195.083 107.042 197.502L114.121 223.072C122.87 224.292 131.738 224.331 140.488 223.23L147.885 197.758C156.415 195.456 164.469 191.68 171.667 186.605L196.284 197.069C202.687 191.07 208.274 184.245 212.848 176.77L197.338 155.154C200.818 147.128 202.866 138.533 203.363 129.819L226.986 117.31C226.23 108.616 224.321 100.04 221.279 91.8376L194.534 90.3624C190.358 82.652 184.85 75.7283 178.249 69.9061H178.268Z" fill="#6B9543"/>
<path d="M129.511 186.802C164.094 186.802 192.128 159.071 192.128 124.863C192.128 90.6547 164.094 62.9236 129.511 62.9236C94.929 62.9236 66.8945 90.6547 66.8945 124.863C66.8945 159.071 94.929 186.802 129.511 186.802Z" fill="#E9F4CA"/>
<path d="M85.2479 154.013C101.593 181.983 134.602 191.326 126.707 133.419C126.091 128.915 123.605 124.863 119.847 122.247C70.8116 88.1005 67.4113 123.506 85.2479 154.013ZM115.91 137.786C117.302 137.451 118.376 138.041 118.873 139.418C125.375 157.435 113.703 163.985 105.53 159.953C98.0337 156.255 98.0337 142.231 115.91 137.786ZM111.655 127.066C112.609 128.187 112.589 129.406 111.595 130.41C98.7893 143.529 86.5006 136.507 86.9977 128.266C87.5346 119.257 99.1075 112.51 111.655 127.066Z" fill="#C8D987"/>
<path d="M118.745 163.101C126.012 158.951 125.657 144.887 117.953 131.688C110.249 118.489 98.1134 111.153 90.8472 115.303C83.5811 119.453 83.9359 133.517 91.6398 146.716C99.3436 159.915 111.479 167.251 118.745 163.101Z" fill="#C8D987"/>
<path d="M126.111 72.3649C93.4602 72.3846 68.7635 95.9879 123.407 118.175C127.662 119.906 132.434 119.788 136.61 117.88C191.034 92.9588 161.724 72.3256 126.091 72.3452L126.111 72.3649ZM124.997 106.747C124.6 108.104 123.546 108.734 122.094 108.478C103.065 105.036 103.164 91.759 110.78 86.7826C117.759 82.2193 130.048 89.2216 124.997 106.767V106.747ZM136.511 108.458C135.059 108.714 133.985 108.104 133.607 106.727C128.517 89.202 140.806 82.18 147.785 86.7236C155.401 91.7 155.54 104.977 136.511 108.439V108.458Z" fill="#C8D987"/>
<path d="M129.292 111.546C144.7 111.546 157.191 104.818 157.191 96.5189C157.191 88.2195 144.7 81.4915 129.292 81.4915C113.885 81.4915 101.394 88.2195 101.394 96.5189C101.394 104.818 113.885 111.546 129.292 111.546Z" fill="#C8D987"/>
<path d="M177.175 148.21C193.48 120.221 185.168 87.2742 138.4 122.994C134.761 125.767 132.454 129.918 132.057 134.461C126.668 193.548 159.378 178.757 177.175 148.23V148.21ZM147.626 130.055C146.632 129.033 146.612 127.813 147.567 126.712C160.094 112.136 171.667 118.863 172.224 127.872C172.741 136.133 160.452 143.155 147.626 130.055ZM140.368 139.064C140.865 137.687 141.939 137.097 143.331 137.431C161.207 141.837 161.227 155.881 153.751 159.579C145.598 163.611 133.906 157.101 140.368 139.064Z" fill="#C8D987"/>
<path d="M167.572 146.367C175.276 133.168 175.63 119.104 168.364 114.955C161.098 110.805 148.963 118.141 141.259 131.34C133.555 144.539 133.2 158.603 140.466 162.753C147.732 166.902 159.868 159.567 167.572 146.367Z" fill="#C8D987"/>
</g>
<defs>
<clipPath id="clip0_33_498">
<rect width="256" height="256" fill="white"/>
</clipPath>
</defs>
</svg>

        </g>
         
        <g transform="translate(1200, 600)">
          <svg xmlns="http://www.w3.org/2000/svg" width="256" height="256" fill="none" viewBox="0 0 256 256"><rect width="256" height="256" fill="#F4F2ED" rx="60"/><path fill="url(#paint0_linear_2_56)" d="M127.279 29C76.5066 29 79.6772 51.018 79.6772 51.018L79.7338 73.8284H128.185V80.6772H60.4893C60.4893 80.6772 28 76.9926 28 128.222C28 179.452 56.3573 177.636 56.3573 177.636H73.2812V153.863C73.2812 153.863 72.369 125.506 101.186 125.506H149.24C149.24 125.506 176.239 125.942 176.239 99.4123V55.5461C176.239 55.5461 180.338 29 127.279 29ZM100.563 44.339C105.384 44.339 109.28 48.2351 109.28 53.0556C109.28 57.8761 105.384 61.7723 100.563 61.7723C95.7426 61.7723 91.8465 57.8761 91.8465 53.0556C91.8465 48.2351 95.7426 44.339 100.563 44.339Z"/><path fill="url(#paint1_linear_2_56)" d="M128.721 227.958C179.493 227.958 176.323 205.941 176.323 205.941L176.266 183.13H127.815V176.281H195.511C195.511 176.281 228 179.966 228 128.736C228 77.5062 199.643 79.323 199.643 79.323H182.719V103.096C182.719 103.096 183.631 131.453 154.814 131.453H106.76C106.76 131.453 79.7607 131.016 79.7607 157.546V201.412C79.7607 201.412 75.6615 227.958 128.721 227.958ZM155.437 212.619C150.616 212.619 146.72 208.723 146.72 203.903C146.72 199.082 150.616 195.186 155.437 195.186C160.257 195.186 164.154 199.082 164.154 203.903C164.154 208.723 160.257 212.619 155.437 212.619Z"/><defs><linearGradient id="paint0_linear_2_56" x1="47.22" x2="146.333" y1="46.896" y2="145.02" gradientUnits="userSpaceOnUse"><stop stop-color="#387EB8"/><stop offset="1" stop-color="#366994"/></linearGradient><linearGradient id="paint1_linear_2_56" x1="108.056" x2="214.492" y1="109.905" y2="210.522" gradientUnits="userSpaceOnUse"><stop stop-color="#FFE052"/><stop offset="1" stop-color="#FFC331"/></linearGradient></defs></svg>
        </g>
         
        <g transform="translate(1500, 600)">
          <svg xmlns="http://www.w3.org/2000/svg" width="256" height="256" fill="none" viewBox="0 0 256 256"><rect width="256" height="256" fill="#E43717" rx="60"/><path fill="#fff" d="M226.574 125.551L218.184 120.353C218.113 119.535 218.033 118.719 217.945 117.907L225.169 111.18C225.903 110.496 226.232 109.483 226.033 108.504C225.84 107.52 225.15 106.71 224.212 106.364L214.98 102.924C214.749 102.125 214.506 101.332 214.258 100.535L220.011 92.5468C220.598 91.7345 220.718 90.6777 220.336 89.7566C219.953 88.8335 219.118 88.1723 218.138 88.0098L208.409 86.4275C208.031 85.6898 207.637 84.9636 207.239 84.2488L211.33 75.2668C211.748 74.3533 211.662 73.2983 211.104 72.4575C210.548 71.6242 209.606 71.1369 208.6 71.1751L198.719 71.5191C198.209 70.8808 197.689 70.2483 197.159 69.6272L199.434 60.0144C199.663 59.0379 199.375 58.0078 198.664 57.3007C197.958 56.5936 196.934 56.3012 195.949 56.5305L186.336 58.8047C185.713 58.2772 185.08 57.7555 184.44 57.2453L184.786 47.365C184.824 46.3655 184.336 45.4157 183.503 44.8615C182.668 44.3034 181.611 44.2193 180.693 44.634L171.729 48.7238C171.005 48.3263 170.279 47.9326 169.551 47.5523L167.964 37.8249C167.804 36.8387 167.142 36.0017 166.217 35.6271C165.294 35.243 164.23 35.3672 163.427 35.952L155.438 41.7044C154.65 41.454 153.859 41.2132 153.068 40.9839L149.627 31.7534C149.277 30.8131 148.467 30.1232 147.487 29.9283C146.504 29.7353 145.499 30.0621 144.811 30.7921L138.083 38.016C137.271 37.9262 136.453 37.844 135.637 37.7771L130.438 29.3683C129.912 28.5179 128.981 28 127.972 28C126.963 28 126.042 28.5179 125.526 29.3683L120.327 37.7771C119.509 37.844 118.691 37.9262 117.881 38.016L111.153 30.7921C110.471 30.0621 109.458 29.7353 108.477 29.9283C107.493 30.1251 106.682 30.8131 106.336 31.7534L102.896 40.9839C102.097 41.2132 101.306 41.4559 100.526 41.7044L92.5368 35.952C91.7245 35.3653 90.6657 35.2411 89.7463 35.6271C88.8232 36.0093 88.16 36.8464 87.9994 37.8249L86.413 47.5523C85.6791 47.9326 84.9528 48.3243 84.2342 48.7238L75.2702 44.634C74.3585 44.2174 73.3016 44.3034 72.4606 44.8615C71.6273 45.4157 71.1399 46.3655 71.1781 47.365L71.5221 57.2453C70.8838 57.7555 70.2511 58.2772 69.6261 58.8047L60.0123 56.5305C59.0356 56.3031 58.0054 56.5936 57.2983 57.3007C56.5873 58.0097 56.2987 59.0321 56.528 60.0144L58.7833 69.6272C58.2577 70.2502 57.7379 70.8808 57.2275 71.5191L47.3461 71.1751C46.3504 71.1465 45.3966 71.6242 44.8423 72.4575C44.2842 73.2869 44.2002 74.3494 44.6149 75.2668L48.7051 84.2488C48.3075 84.9693 47.9138 85.6955 47.5335 86.4275L37.805 88.0098C36.8168 88.1704 35.9835 88.8316 35.607 89.7566C35.2247 90.6835 35.3489 91.7441 35.9319 92.5468L41.6849 100.535C41.4345 101.324 41.1918 102.117 40.9624 102.924L31.7309 106.364C30.7943 106.714 30.1043 107.524 29.9094 108.504C29.7144 109.487 30.0413 110.492 30.7733 111.18L37.998 117.907C37.9082 118.719 37.8279 119.537 37.7591 120.353L29.3685 125.551C28.518 126.077 28 127.005 28 128.016C28 129.027 28.518 129.947 29.3685 130.463L37.7591 135.661C37.8279 136.479 37.9082 137.295 37.998 138.107L30.7733 144.834C30.0413 145.516 29.7144 146.529 29.9094 147.509C30.1043 148.494 30.7943 149.302 31.7309 149.65L40.9624 153.09C41.1918 153.889 41.4345 154.682 41.6849 155.479L35.9319 163.467C35.347 164.281 35.2228 165.338 35.607 166.257C35.9911 167.184 36.8264 167.845 37.8241 168.004L47.5526 169.586C47.9329 170.324 48.3228 171.05 48.7242 171.765L44.634 180.728C44.2174 181.639 44.3034 182.696 44.8615 183.537C45.4196 184.372 46.3695 184.86 47.3653 184.819L57.2275 184.474C57.7417 185.116 58.2597 185.744 58.7872 186.369L56.5318 195.982C56.3025 196.957 56.5911 197.97 57.3021 198.677C58.0074 199.39 59.0337 199.674 60.0161 199.445L69.63 197.19C70.2549 197.721 70.8876 198.237 71.526 198.746L71.1819 208.626C71.1437 209.625 71.6311 210.575 72.4644 211.129C73.2939 211.685 74.3566 211.77 75.274 211.353L84.238 207.263C84.9605 207.665 85.6868 208.054 86.4169 208.435L88.0032 218.162C88.1638 219.152 88.8251 219.989 89.7502 220.379C90.6733 220.763 91.7379 220.639 92.5407 220.056L100.53 214.304C101.319 214.554 102.112 214.799 102.919 215.028L106.359 224.258C106.709 225.195 107.519 225.889 108.5 226.08C109.482 226.278 110.488 225.95 111.176 225.216L117.904 217.992C118.716 218.086 119.534 218.164 120.35 218.237L125.549 226.626C126.072 227.473 127.003 227.995 127.995 227.995C128.987 227.995 129.926 227.475 130.461 226.626L135.66 218.237C136.478 218.164 137.294 218.086 138.106 217.992L144.834 225.216C145.516 225.95 146.529 226.278 147.51 226.08C148.494 225.887 149.304 225.195 149.65 224.258L153.091 215.028C153.889 214.799 154.683 214.554 155.48 214.304L163.469 220.056C164.281 220.639 165.34 220.763 166.259 220.379C167.184 219.999 167.846 219.16 168.006 218.162L169.593 208.435C170.327 208.054 171.053 207.659 171.772 207.263L180.736 211.353C181.647 211.77 182.704 211.685 183.545 211.129C184.378 210.571 184.864 209.625 184.828 208.626L184.484 198.746C185.122 198.235 185.755 197.721 186.378 197.19L195.991 199.445C196.968 199.674 197.998 199.39 198.706 198.677C199.417 197.968 199.705 196.949 199.476 195.982L197.22 186.369C197.748 185.744 198.268 185.116 198.776 184.474L208.658 184.819C209.653 184.86 210.607 184.372 211.161 183.537C211.72 182.704 211.806 181.643 211.387 180.728L207.297 171.765C207.696 171.041 208.088 170.314 208.467 169.586L218.195 168.004C219.185 167.845 220.018 167.184 220.393 166.257C220.775 165.334 220.655 164.27 220.068 163.467L214.315 155.479C214.564 154.689 214.806 153.896 215.038 153.09L224.269 149.65C225.208 149.298 225.899 148.49 226.091 147.509C226.289 146.527 225.961 145.522 225.227 144.834L218.002 138.107C218.09 137.295 218.17 136.477 218.241 135.661L226.632 130.463C227.482 129.939 228 129.008 228 128.016C228 127.025 227.484 126.086 226.633 125.551H226.574ZM170.382 195.306C167.171 194.614 165.145 191.445 165.833 188.235C166.519 185.024 169.675 182.979 172.886 183.667C176.097 184.353 178.142 187.527 177.454 190.738C176.766 193.949 173.612 195.994 170.401 195.306H170.382ZM167.534 176.004C164.61 175.377 161.724 177.238 161.112 180.17L158.131 194.082C148.937 198.249 138.635 200.58 127.932 200.58C116.923 200.58 106.526 198.153 97.1603 193.796L94.1786 179.883C93.5517 176.959 90.681 175.086 87.7567 175.717L75.467 178.354C73.1926 176.004 71.0711 173.5 69.1215 170.863H128.945C129.622 170.863 130.073 170.741 130.073 170.125V148.912C130.073 148.297 129.622 148.175 128.945 148.175H111.457V134.778H130.359C132.085 134.778 139.591 135.271 141.98 144.868C142.731 147.811 144.388 157.405 145.516 160.482C146.64 163.922 151.212 170.802 156.086 170.802H185.902C186.24 170.802 186.601 170.763 186.982 170.695C184.917 173.504 182.643 176.16 180.216 178.645L167.639 175.95L167.534 176.004ZM84.7751 195.019C81.5641 195.711 78.4104 193.666 77.7224 190.451C77.0362 187.241 79.0756 184.068 82.2904 183.38C85.5014 182.694 88.655 184.739 89.3431 187.948C90.0292 191.159 87.988 194.331 84.7751 195.019ZM62.0306 103.096C63.3609 106.096 62.0077 109.613 59.0108 110.95C56.0101 112.282 52.5124 110.928 51.1745 107.931C49.8366 104.934 51.1974 101.414 54.1943 100.076C57.1951 98.7463 60.6927 100.099 62.0306 103.096ZM55.0544 119.608L67.8601 113.913C70.5932 112.699 71.8356 109.498 70.6124 106.765L67.9748 100.803H78.334V147.433H57.5009C55.687 141.05 54.7104 134.323 54.7104 127.367C54.7104 124.71 54.8537 122.092 55.1289 119.512L55.0544 119.608ZM111.247 115.078V101.319H135.902C137.177 101.319 144.904 102.792 144.904 108.562C144.904 113.358 138.979 115.078 134.106 115.078H111.17H111.247ZM200.886 127.462C200.886 129.289 200.819 131.093 200.686 132.89H193.174C192.423 132.89 192.121 133.383 192.121 134.118V137.558C192.121 145.661 187.553 147.439 183.539 147.878C179.717 148.308 175.493 146.281 174.977 143.941C172.721 131.271 168.975 128.576 163.05 123.875C170.409 119.212 178.054 112.313 178.054 103.044C178.054 93.0876 171.231 86.8192 166.586 83.7424C160.05 79.4425 152.825 78.5825 150.875 78.5825H73.2767C83.8079 66.8485 98.1236 58.5161 114.178 55.4584L123.334 65.052C125.398 67.2116 128.819 67.3071 130.998 65.2279L141.242 55.4431C162.649 59.4373 180.806 72.7766 191.318 91.1803L184.304 107.004C183.094 109.737 184.329 112.948 187.056 114.152L200.55 120.152C200.783 122.541 200.905 124.968 200.905 127.414L200.886 127.462ZM123.288 47.3879C125.658 45.1137 129.423 45.2093 131.678 47.5809C133.934 49.9507 133.857 53.7155 131.481 55.9897C129.111 58.2639 125.346 58.1683 123.091 55.7948C120.836 53.425 120.912 49.6602 123.288 47.386V47.3879ZM192.859 103.383C194.187 100.382 197.694 99.0253 200.695 100.363C203.696 101.693 205.053 105.217 203.715 108.218C202.387 111.218 198.879 112.575 195.879 111.237C192.878 109.907 191.521 106.383 192.859 103.383Z"/></svg>
        </g>
         
        <g transform="translate(1800, 600)">
          <svg xmlns="http://www.w3.org/2000/svg" width="256" height="256" fill="none" viewBox="0 0 256 256"><rect width="256" height="256" fill="#F4F2ED" rx="60"/><path fill="#2489CA" d="M33.7158 100.208C33.7158 100.208 28.9814 96.795 34.6627 92.2381L47.8994 80.402C47.8994 80.402 51.6869 76.4172 55.6915 79.8891L177.84 172.368V216.714C177.84 216.714 177.781 223.678 168.844 222.908L33.7158 100.208Z"/><path fill="#1070B3" d="M65.1997 128.792L33.7157 157.415C33.7157 157.415 30.4805 159.822 33.7157 164.123L48.3333 177.418C48.3333 177.418 51.8052 181.147 56.9341 176.905L90.3119 151.596L65.1997 128.792Z"/><path fill="#0877B9" d="M120.474 129.029L178.215 84.9391L177.84 40.83C177.84 40.83 175.374 31.2033 167.148 36.2139L90.312 106.145L120.474 129.029Z"/><path fill="#3C99D4" d="M168.844 222.968C172.198 226.4 176.262 225.276 176.262 225.276L221.259 203.103C227.019 199.177 226.21 194.305 226.21 194.305V61.8982C226.21 56.0788 220.252 54.0667 220.252 54.0667L181.253 35.267C172.731 30 167.148 36.2139 167.148 36.2139C167.148 36.2139 174.328 31.0455 177.84 40.83V215.905C177.84 217.109 177.583 218.292 177.071 219.358C176.045 221.429 173.816 223.362 168.47 222.553L168.844 222.968Z"/></svg>
        </g>
        
  </svg>
  